<svg width="327" height="495" viewBox="0 0 327 495" fill="none" xmlns="http://www.w3.org/2000/svg">
<path d="M85.7163 342.978C78.7808 346.443 71.001 340.102 72.9967 332.61L128.748 123.314C130.43 117.001 138.067 114.527 143.131 118.654L281.132 231.135C286.196 235.263 285.313 243.242 279.468 246.162L85.7163 342.978Z" fill="#A16E83" fill-opacity="0.72"/>
<path d="M30.8255 427.857C26.9366 426.959 24.5843 422.996 25.6584 419.152L105 135.219C106.657 129.287 114.617 128.233 117.761 133.53L325.674 483.781C328.818 489.078 324.081 495.561 318.08 494.175L30.8255 427.857Z" fill="#C4C4C4" fill-opacity="0.1"/>
<path d="M299.387 0.660853C302.304 -0.234999 304.54 3.28944 302.487 5.54702L184.512 135.279C183.18 136.743 180.82 136.539 179.759 134.868L130.109 56.6159C129.049 54.9444 129.869 52.7221 131.762 52.1409L299.387 0.660853Z" fill="#479761" fill-opacity="0.8"/>
</svg>
