<svg width="360" height="239" viewBox="0 0 360 239" fill="none" xmlns="http://www.w3.org/2000/svg">
<path d="M249.643 175.652C252.169 180.708 247.547 186.379 242.086 184.924L89.5147 144.283C84.9124 143.057 83.1089 137.49 86.118 133.798L168.113 33.1999C171.122 29.5081 176.938 30.1518 179.067 34.4123L249.643 175.652Z" fill="#A16E83" fill-opacity="0.72"/>
<path d="M311.518 215.666C310.863 218.501 307.975 220.216 305.172 219.433L98.1933 161.595C93.8688 160.387 93.1007 154.585 96.9619 152.293L352.285 0.730026C356.146 -1.56203 360.872 1.8907 359.862 6.26585L311.518 215.666Z" fill="#C4C4C4" fill-opacity="0.1"/>
<path d="M0.104065 19.8924C-0.548986 17.766 2.02023 16.1358 3.66594 17.6324L98.2366 103.633C99.3042 104.604 99.1554 106.324 97.9369 107.097L40.8937 143.291C39.6752 144.064 38.0552 143.466 37.6315 142.086L0.104065 19.8924Z" fill="#479761" fill-opacity="0.8"/>
</svg>
