<svg width="1440" height="747" viewBox="0 0 1440 747" fill="none" xmlns="http://www.w3.org/2000/svg">
<rect y="69" width="1440" height="678" fill="black"/>
<path d="M273.864 648.616V661H211.656L163.56 593.32H118.92V661H57V648.616H84.936V459.688H159.816C190.536 459.688 212.52 464.872 225.768 475.24C239.016 485.608 245.64 502.216 245.64 525.064C245.64 558.28 231.144 579.208 202.152 587.848L245.928 648.616H273.864ZM161.256 562.504C180.456 562.504 193.512 559.528 200.424 553.576C207.336 547.624 210.792 538.12 210.792 525.064C210.792 511.816 207.24 502.792 200.136 497.992C193.032 493 180.36 490.504 162.12 490.504H118.92V562.504H161.256ZM508.451 648.616V661H266.531V648.616H332.483C316.739 639.592 304.259 627.208 295.043 611.464C286.019 595.72 281.507 578.152 281.507 558.76C281.507 529.192 291.683 504.52 312.035 484.744C332.387 464.776 357.539 454.792 387.491 454.792C417.443 454.792 442.595 464.776 462.947 484.744C483.299 504.52 493.475 529.192 493.475 558.76C493.475 577.96 488.867 595.528 479.651 611.464C470.627 627.4 458.243 639.784 442.499 648.616H508.451ZM437.891 507.208C424.259 493 407.459 485.896 387.491 485.896C367.523 485.896 350.627 493 336.803 507.208C323.171 521.416 316.355 538.696 316.355 559.048C316.355 579.208 323.171 596.392 336.803 610.6C350.627 624.808 367.523 631.912 387.491 631.912C407.459 631.912 424.259 624.808 437.891 610.6C451.715 596.392 458.627 579.208 458.627 559.048C458.627 538.696 451.715 521.416 437.891 507.208ZM536.342 648.616V459.688H570.326V648.616H598.262V661H508.406V648.616H536.342ZM810.093 648.616V661H598.125V648.616H662.061C646.893 639.592 634.893 627.304 626.061 611.752C617.421 596.2 613.101 578.632 613.101 559.048C613.101 529.48 623.277 504.712 643.629 484.744C664.173 464.776 689.997 454.792 721.101 454.792C752.397 454.792 778.509 466.312 799.437 489.352L777.837 512.968C768.237 503.752 759.117 497.32 750.477 493.672C742.029 490.024 732.045 488.2 720.525 488.2C700.173 488.2 683.085 494.824 669.261 508.072C655.437 521.128 648.525 537.928 648.525 558.472C648.525 578.824 655.341 595.912 668.973 609.736C682.797 623.368 699.117 630.184 717.933 630.184C729.645 630.184 739.725 628.264 748.173 624.424C756.621 620.392 765.453 614.056 774.669 605.416L796.557 627.88C788.109 637.096 780.045 644.008 772.365 648.616H810.093ZM838.124 648.616V459.688H979.531V491.656H872.108V544.936H968.588V575.176H872.108V629.032H982.988V648.616H1010.92V661H810.188V648.616H838.124ZM1077.54 648.616V661H998.625V648.616H1077.54ZM1259.38 648.616V661H1077.66V648.616H1105.59V459.688H1139.58V628.744H1231.45V648.616H1259.38ZM1268.72 648.616V459.688H1302.7V648.616H1330.64V661H1240.78V648.616H1268.72ZM1551.68 648.616V661H1330.5V648.616H1390.12C1367.27 632.68 1355.84 607.432 1355.84 572.872V459.688H1389.83V571.432C1389.83 589.864 1394.44 604.456 1403.65 615.208C1412.87 625.96 1425.35 631.336 1441.09 631.336C1456.84 631.336 1469.32 625.96 1478.53 615.208C1487.75 604.456 1492.36 589.864 1492.36 571.432V459.688H1526.34V572.872C1526.34 607.624 1514.82 632.872 1491.78 648.616H1551.68Z" fill="#A5A2A2"/>
<rect x="57" y="200" width="1383" height="398" fill="#A16E83" fill-opacity="0.72"/>
<path d="M706.57 198.452V199.452H707.57V198.452H706.57ZM706.57 174.836V173.836H705.57V174.836H706.57ZM710.818 174.836H711.818V173.836H710.818V174.836ZM710.818 198.452H709.818V199.452H710.818V198.452ZM714.31 198.452H715.31V197.452H714.31V198.452ZM714.31 200V201H715.31V200H714.31ZM703.078 200H702.078V201H703.078V200ZM703.078 198.452V197.452H702.078V198.452H703.078ZM707.57 198.452V174.836H705.57V198.452H707.57ZM706.57 175.836H710.818V173.836H706.57V175.836ZM709.818 174.836V198.452H711.818V174.836H709.818ZM710.818 199.452H714.31V197.452H710.818V199.452ZM713.31 198.452V200H715.31V198.452H713.31ZM714.31 199H703.078V201H714.31V199ZM704.078 200V198.452H702.078V200H704.078ZM703.078 199.452H706.57V197.452H703.078V199.452ZM724.157 198.452H725.157V197.452H724.157V198.452ZM724.157 200V201H725.157V200H724.157ZM714.293 200H713.293V201H714.293V200ZM714.293 198.452V197.452H713.293V198.452H714.293ZM723.157 198.452V200H725.157V198.452H723.157ZM724.157 199H714.293V201H724.157V199ZM715.293 200V198.452H713.293V200H715.293ZM714.293 199.452H724.157V197.452H714.293V199.452ZM752.324 198.452H753.324V197.452H752.324V198.452ZM752.324 200V201H753.324V200H752.324ZM724.172 200H723.172V201H724.172V200ZM724.172 198.452V197.452H723.172V198.452H724.172ZM727.664 198.452V199.452H728.664V198.452H727.664ZM727.664 174.836V173.836H726.664V174.836H727.664ZM746.708 178.148L746.034 178.887L746.039 178.891L746.708 178.148ZM744.008 198.452L743.577 197.55L744.008 199.452V198.452ZM731.912 178.76V177.76H730.912V178.76H731.912ZM731.912 196.004H730.912V197.004H731.912V196.004ZM743.612 193.844L744.279 194.589L744.28 194.588L743.612 193.844ZM751.324 198.452V200H753.324V198.452H751.324ZM752.324 199H724.172V201H752.324V199ZM725.172 200V198.452H723.172V200H725.172ZM724.172 199.452H727.664V197.452H724.172V199.452ZM728.664 198.452V174.836H726.664V198.452H728.664ZM727.664 175.836H736.304V173.836H727.664V175.836ZM736.304 175.836C740.661 175.836 743.854 176.901 746.034 178.887L747.381 177.409C744.714 174.979 740.971 173.836 736.304 173.836V175.836ZM746.039 178.891C748.206 180.844 749.344 183.632 749.344 187.4H751.344C751.344 183.2 750.057 179.82 747.377 177.405L746.039 178.891ZM749.344 187.4C749.344 189.946 748.842 192.024 747.892 193.68C746.948 195.327 745.525 196.62 743.577 197.55L744.439 199.354C746.714 198.268 748.46 196.711 749.627 194.674C750.79 192.646 751.344 190.206 751.344 187.4H749.344ZM744.008 199.452H752.324V197.452H744.008V199.452ZM747.06 187.4C747.06 184.328 746.174 181.852 744.242 180.167C742.337 178.504 739.583 177.76 736.16 177.76V179.76C739.337 179.76 741.532 180.456 742.927 181.673C744.296 182.868 745.06 184.712 745.06 187.4H747.06ZM736.16 177.76H731.912V179.76H736.16V177.76ZM730.912 178.76V196.004H732.912V178.76H730.912ZM731.912 197.004H736.628V195.004H731.912V197.004ZM736.628 197.004C739.821 197.004 742.424 196.25 744.279 194.589L742.945 193.099C741.584 194.318 739.531 195.004 736.628 195.004V197.004ZM744.28 194.588C746.181 192.883 747.06 190.428 747.06 187.4H745.06C745.06 190.036 744.307 191.877 742.944 193.1L744.28 194.588ZM755.824 198.452V199.452H756.824V198.452H755.824ZM755.824 174.836V173.836H754.824V174.836H755.824ZM773.5 174.836H774.5V173.836H773.5V174.836ZM773.5 178.832V179.832H774.5V178.832H773.5ZM760.072 178.832V177.832H759.072V178.832H760.072ZM760.072 185.492H759.072V186.492H760.072V185.492ZM772.132 185.492H773.132V184.492H772.132V185.492ZM772.132 189.272V190.272H773.132V189.272H772.132ZM760.072 189.272V188.272H759.072V189.272H760.072ZM760.072 196.004H759.072V197.004H760.072V196.004ZM773.932 196.004H774.932V195.004H773.932V196.004ZM773.932 198.452H772.932V199.452H773.932V198.452ZM777.424 198.452H778.424V197.452H777.424V198.452ZM777.424 200V201H778.424V200H777.424ZM752.332 200H751.332V201H752.332V200ZM752.332 198.452V197.452H751.332V198.452H752.332ZM756.824 198.452V174.836H754.824V198.452H756.824ZM755.824 175.836H773.5V173.836H755.824V175.836ZM772.5 174.836V178.832H774.5V174.836H772.5ZM773.5 177.832H760.072V179.832H773.5V177.832ZM759.072 178.832V185.492H761.072V178.832H759.072ZM760.072 186.492H772.132V184.492H760.072V186.492ZM771.132 185.492V189.272H773.132V185.492H771.132ZM772.132 188.272H760.072V190.272H772.132V188.272ZM759.072 189.272V196.004H761.072V189.272H759.072ZM760.072 197.004H773.932V195.004H760.072V197.004ZM772.932 196.004V198.452H774.932V196.004H772.932ZM773.932 199.452H777.424V197.452H773.932V199.452ZM776.424 198.452V200H778.424V198.452H776.424ZM777.424 199H752.332V201H777.424V199ZM753.332 200V198.452H751.332V200H753.332ZM752.332 199.452H755.824V197.452H752.332V199.452ZM798.567 198.452H799.567V197.452H798.567V198.452ZM798.567 200V201H799.567V200H798.567ZM775.887 200H774.887V201H775.887V200ZM775.887 198.452V197.452H774.887V198.452H775.887ZM780.495 198.452V199.452L780.957 197.565L780.495 198.452ZM777.327 196.22L776.558 195.581L775.951 196.31L776.648 196.954L777.327 196.22ZM779.991 193.016L780.646 192.261L779.875 191.591L779.222 192.377L779.991 193.016ZM791.151 195.464L791.739 196.273L791.743 196.27L791.151 195.464ZM791.223 190.856L790.627 191.659L790.641 191.67L790.656 191.68L791.223 190.856ZM787.335 189.38L787.095 190.351L787.107 190.354L787.335 189.38ZM783.123 188.156L782.751 189.084L782.761 189.089L782.772 189.092L783.123 188.156ZM780.567 186.68L781.194 185.902L781.183 185.892L781.171 185.883L780.567 186.68ZM780.855 176.132L781.451 176.935L781.453 176.933L780.855 176.132ZM791.943 175.016L791.626 175.965L791.626 175.965L791.943 175.016ZM796.047 177.248L796.863 177.826L797.397 177.071L796.687 176.48L796.047 177.248ZM793.779 180.452L793.108 181.194L793.944 181.949L794.595 181.03L793.779 180.452ZM783.951 183.548L783.379 184.368L783.387 184.374L783.396 184.38L783.951 183.548ZM788.991 185.276L788.755 186.248L788.757 186.248L788.991 185.276ZM794.823 187.904L794.166 188.658L794.173 188.664L794.823 187.904ZM794.067 198.452L793.46 197.657L791.108 199.452H794.067V198.452ZM797.567 198.452V200H799.567V198.452H797.567ZM798.567 199H775.887V201H798.567V199ZM776.887 200V198.452H774.887V200H776.887ZM775.887 199.452H780.495V197.452H775.887V199.452ZM780.957 197.565C779.884 197.006 778.901 196.314 778.006 195.486L776.648 196.954C777.672 197.902 778.801 198.698 780.033 199.339L780.957 197.565ZM778.096 196.859L780.76 193.655L779.222 192.377L776.558 195.581L778.096 196.859ZM779.335 193.771C782.017 196.099 784.882 197.328 787.911 197.328V195.328C785.468 195.328 783.052 194.349 780.646 192.261L779.335 193.771ZM787.911 197.328C789.408 197.328 790.72 197.014 791.739 196.273L790.563 194.655C789.997 195.066 789.149 195.328 787.911 195.328V197.328ZM791.743 196.27C792.799 195.493 793.375 194.422 793.375 193.124H791.375C791.375 193.746 791.135 194.235 790.558 194.658L791.743 196.27ZM793.375 193.124C793.375 191.833 792.846 190.759 791.789 190.032L790.656 191.68C791.135 192.009 791.375 192.447 791.375 193.124H793.375ZM791.819 190.053C790.9 189.372 789.433 188.844 787.562 188.406L787.107 190.354C788.932 190.78 790.057 191.236 790.627 191.659L791.819 190.053ZM787.574 188.409C785.738 187.956 784.379 187.559 783.474 187.22L782.772 189.092C783.787 189.473 785.235 189.892 787.095 190.351L787.574 188.409ZM783.494 187.228C782.619 186.877 781.855 186.434 781.194 185.902L779.939 187.458C780.767 188.126 781.706 188.667 782.751 189.084L783.494 187.228ZM781.171 185.883C779.993 184.99 779.335 183.597 779.335 181.496H777.335C777.335 184.051 778.164 186.114 779.963 187.477L781.171 185.883ZM779.335 181.496C779.335 179.443 780.056 177.971 781.451 176.935L780.258 175.329C778.293 176.789 777.335 178.893 777.335 181.496H779.335ZM781.453 176.933C782.955 175.812 784.836 175.224 787.155 175.224V173.224C784.482 173.224 782.162 173.908 780.257 175.331L781.453 176.933ZM787.155 175.224C788.651 175.224 790.141 175.469 791.626 175.965L792.259 174.067C790.577 173.507 788.874 173.224 787.155 173.224V175.224ZM791.626 175.965C793.106 176.458 794.361 177.145 795.407 178.016L796.687 176.48C795.429 175.431 793.948 174.63 792.259 174.067L791.626 175.965ZM795.231 176.67L792.963 179.874L794.595 181.03L796.863 177.826L795.231 176.67ZM794.449 179.71C793.576 178.921 792.436 178.311 791.076 177.849L790.433 179.743C791.618 180.145 792.494 180.639 793.108 181.194L794.449 179.71ZM791.076 177.849C789.709 177.385 788.34 177.148 786.975 177.148V179.148C788.105 179.148 789.257 179.343 790.433 179.743L791.076 177.849ZM786.975 177.148C785.617 177.148 784.408 177.428 783.414 178.06L784.488 179.748C785.077 179.372 785.884 179.148 786.975 179.148V177.148ZM783.414 178.06C782.301 178.769 781.763 179.875 781.763 181.208H783.763C783.763 180.477 784.017 180.047 784.488 179.748L783.414 178.06ZM781.763 181.208C781.763 182.526 782.305 183.62 783.379 184.368L784.523 182.728C784.013 182.372 783.763 181.906 783.763 181.208H781.763ZM783.396 184.38C783.901 184.717 784.616 185.026 785.48 185.322C786.36 185.623 787.454 185.932 788.755 186.248L789.227 184.304C787.96 183.996 786.93 183.705 786.129 183.43C785.313 183.15 784.793 182.907 784.505 182.716L783.396 184.38ZM788.757 186.248C791.271 186.853 793.04 187.678 794.166 188.658L795.479 187.15C794.013 185.874 791.895 184.947 789.225 184.304L788.757 186.248ZM794.173 188.664C795.231 189.568 795.803 190.852 795.803 192.656H797.803C797.803 190.38 797.054 188.496 795.472 187.144L794.173 188.664ZM795.803 192.656C795.803 194.844 795.015 196.471 793.46 197.657L794.673 199.247C796.767 197.649 797.803 195.412 797.803 192.656H795.803ZM794.067 199.452H798.567V197.452H794.067V199.452ZM802.054 198.452V199.452H803.054V198.452H802.054ZM802.054 174.836V173.836H801.054V174.836H802.054ZM806.302 174.836H807.302V173.836H806.302V174.836ZM806.302 198.452H805.302V199.452H806.302V198.452ZM809.795 198.452H810.795V197.452H809.795V198.452ZM809.795 200V201H810.795V200H809.795ZM798.562 200H797.562V201H798.562V200ZM798.562 198.452V197.452H797.562V198.452H798.562ZM803.054 198.452V174.836H801.054V198.452H803.054ZM802.054 175.836H806.302V173.836H802.054V175.836ZM805.302 174.836V198.452H807.302V174.836H805.302ZM806.302 199.452H809.795V197.452H806.302V199.452ZM808.795 198.452V200H810.795V198.452H808.795ZM809.795 199H798.562V201H809.795V199ZM799.562 200V198.452H797.562V200H799.562ZM798.562 199.452H802.054V197.452H798.562V199.452ZM837.029 198.452H838.029V197.452H837.029V198.452ZM837.029 200V201H838.029V200H837.029ZM809.777 200H808.777V201H809.777V200ZM809.777 198.452V197.452H808.777V198.452H809.777ZM818.489 198.452V199.452L818.941 197.56L818.489 198.452ZM813.485 193.808L812.628 194.323L812.632 194.33L813.485 193.808ZM815.465 177.824L816.148 178.555L816.152 178.551L815.465 177.824ZM833.789 177.392L834.609 177.965L835.122 177.232L834.45 176.641L833.789 177.392ZM831.521 180.632L830.872 181.393L831.709 182.107L832.341 181.205L831.521 180.632ZM828.533 178.904L828.21 179.85L828.224 179.855L828.238 179.859L828.533 178.904ZM818.633 180.704L817.969 179.957L817.964 179.961L818.633 180.704ZM818.597 193.448L817.901 194.165L817.906 194.17L818.597 193.448ZM830.693 194.312L831.233 195.154L831.693 194.858V194.312H830.693ZM830.693 187.4V186.4H829.693V187.4H830.693ZM834.941 187.4H835.941V186.4H834.941V187.4ZM834.941 196.004L835.684 196.674L835.941 196.389V196.004H834.941ZM831.701 198.452L831.247 197.561L831.701 199.452V198.452ZM836.029 198.452V200H838.029V198.452H836.029ZM837.029 199H809.777V201H837.029V199ZM810.777 200V198.452H808.777V200H810.777ZM809.777 199.452H818.489V197.452H809.777V199.452ZM818.941 197.56C817.022 196.589 815.492 195.171 814.338 193.286L812.632 194.33C813.975 196.525 815.781 198.203 818.038 199.344L818.941 197.56ZM814.343 193.294C813.219 191.421 812.649 189.298 812.649 186.896H810.649C810.649 189.63 811.303 192.115 812.628 194.322L814.343 193.294ZM812.649 186.896C812.649 183.484 813.819 180.73 816.148 178.555L814.783 177.093C812.024 179.67 810.649 182.964 810.649 186.896H812.649ZM816.152 178.551C818.503 176.333 821.338 175.224 824.717 175.224V173.224C820.848 173.224 817.516 174.515 814.779 177.097L816.152 178.551ZM824.717 175.224C828.159 175.224 830.937 176.214 833.129 178.143L834.45 176.641C831.842 174.346 828.572 173.224 824.717 173.224V175.224ZM832.97 176.819L830.702 180.059L832.341 181.205L834.609 177.965L832.97 176.819ZM832.171 179.871C831.106 178.963 829.993 178.309 828.829 177.949L828.238 179.859C829.09 180.123 829.969 180.621 830.872 181.393L832.171 179.871ZM828.856 177.958C827.745 177.578 826.479 177.4 825.077 177.4V179.4C826.316 179.4 827.354 179.558 828.21 179.85L828.856 177.958ZM825.077 177.4C822.294 177.4 819.901 178.239 817.969 179.957L819.298 181.451C820.822 180.097 822.725 179.4 825.077 179.4V177.4ZM817.964 179.961C816.015 181.718 815.077 184.107 815.077 187.004H817.077C817.077 184.573 817.844 182.762 819.303 181.447L817.964 179.961ZM815.077 187.004C815.077 189.898 815.999 192.318 817.901 194.165L819.294 192.731C817.835 191.314 817.077 189.438 817.077 187.004H815.077ZM817.906 194.17C819.776 195.961 822.054 196.86 824.681 196.86V194.86C822.557 194.86 820.778 194.151 819.289 192.726L817.906 194.17ZM824.681 196.86C827.224 196.86 829.428 196.313 831.233 195.154L830.153 193.47C828.743 194.375 826.939 194.86 824.681 194.86V196.86ZM831.693 194.312V187.4H829.693V194.312H831.693ZM830.693 188.4H834.941V186.4H830.693V188.4ZM833.941 187.4V196.004H835.941V187.4H833.941ZM834.199 195.334C833.399 196.221 832.419 196.964 831.247 197.561L832.155 199.343C833.528 198.644 834.708 197.755 835.684 196.674L834.199 195.334ZM831.701 199.452H837.029V197.452H831.701V199.452ZM840.515 198.452V199.452H841.515V198.452H840.515ZM840.515 174.836V173.836H839.515V174.836H840.515ZM844.763 174.836L845.553 174.222L845.253 173.836H844.763V174.836ZM859.379 193.628L858.59 194.242L860.379 196.543V193.628H859.379ZM859.379 174.836V173.836H858.379V174.836H859.379ZM863.627 174.836H864.627V173.836H863.627V174.836ZM863.627 198.452H862.627V199.452H863.627V198.452ZM867.119 198.452H868.119V197.452H867.119V198.452ZM867.119 200V201H868.119V200H867.119ZM859.019 200L858.23 200.613L858.53 201H859.019V200ZM844.763 181.64L845.553 181.027L843.763 178.722V181.64H844.763ZM844.763 200V201H845.763V200H844.763ZM837.023 200H836.023V201H837.023V200ZM837.023 198.452V197.452H836.023V198.452H837.023ZM841.515 198.452V174.836H839.515V198.452H841.515ZM840.515 175.836H844.763V173.836H840.515V175.836ZM843.974 175.45L858.59 194.242L860.169 193.014L845.553 174.222L843.974 175.45ZM860.379 193.628V174.836H858.379V193.628H860.379ZM859.379 175.836H863.627V173.836H859.379V175.836ZM862.627 174.836V198.452H864.627V174.836H862.627ZM863.627 199.452H867.119V197.452H863.627V199.452ZM866.119 198.452V200H868.119V198.452H866.119ZM867.119 199H859.019V201H867.119V199ZM859.809 199.387L845.553 181.027L843.974 182.253L858.23 200.613L859.809 199.387ZM843.763 181.64V200H845.763V181.64H843.763ZM844.763 199H837.023V201H844.763V199ZM838.023 200V198.452H836.023V200H838.023ZM837.023 199.452H840.515V197.452H837.023V199.452ZM876.981 198.452H877.981V197.452H876.981V198.452ZM876.981 200V201H877.981V200H876.981ZM867.117 200H866.117V201H867.117V200ZM867.117 198.452V197.452H866.117V198.452H867.117ZM875.981 198.452V200H877.981V198.452H875.981ZM876.981 199H867.117V201H876.981V199ZM868.117 200V198.452H866.117V200H868.117ZM867.117 199.452H876.981V197.452H867.117V199.452ZM907.2 198.452H908.2V197.452H907.2V198.452ZM907.2 200V201H908.2V200H907.2ZM899.172 200L898.257 200.403L898.52 201H899.172V200ZM896.652 194.276L897.567 193.873L897.304 193.276H896.652V194.276ZM884.052 194.276V193.276H883.4L883.137 193.873L884.052 194.276ZM881.532 200V201H882.184L882.447 200.403L881.532 200ZM873.504 200H872.504V201H873.504V200ZM873.504 198.452V197.452H872.504V198.452H873.504ZM877.68 198.452V199.452H878.332L878.595 198.855L877.68 198.452ZM888.084 174.836V173.836H887.432L887.169 174.433L888.084 174.836ZM892.62 174.836L893.535 174.433L893.272 173.836H892.62V174.836ZM903.024 198.452L902.109 198.855L902.372 199.452H903.024V198.452ZM894.924 190.352V191.352H896.458L895.839 189.949L894.924 190.352ZM890.352 179.984L891.267 179.581L890.352 177.506L889.437 179.581L890.352 179.984ZM885.78 190.352L884.865 189.949L884.246 191.352H885.78V190.352ZM906.2 198.452V200H908.2V198.452H906.2ZM907.2 199H899.172V201H907.2V199ZM900.087 199.597L897.567 193.873L895.737 194.679L898.257 200.403L900.087 199.597ZM896.652 193.276H884.052V195.276H896.652V193.276ZM883.137 193.873L880.617 199.597L882.447 200.403L884.967 194.679L883.137 193.873ZM881.532 199H873.504V201H881.532V199ZM874.504 200V198.452H872.504V200H874.504ZM873.504 199.452H877.68V197.452H873.504V199.452ZM878.595 198.855L888.999 175.239L887.169 174.433L876.765 198.049L878.595 198.855ZM888.084 175.836H892.62V173.836H888.084V175.836ZM891.705 175.239L902.109 198.855L903.939 198.049L893.535 174.433L891.705 175.239ZM903.024 199.452H907.2V197.452H903.024V199.452ZM895.839 189.949L891.267 179.581L889.437 180.387L894.009 190.755L895.839 189.949ZM889.437 179.581L884.865 189.949L886.695 190.755L891.267 180.387L889.437 179.581ZM885.78 191.352H894.924V189.352H885.78V191.352ZM907.207 198.452V199.452H908.207V198.452H907.207ZM907.207 174.836V173.836H906.207V174.836H907.207ZM911.455 174.836L912.244 174.222L911.944 173.836H911.455V174.836ZM926.071 193.628L925.281 194.242L927.071 196.543V193.628H926.071ZM926.071 174.836V173.836H925.071V174.836H926.071ZM930.319 174.836H931.319V173.836H930.319V174.836ZM930.319 198.452H929.319V199.452H930.319V198.452ZM933.811 198.452H934.811V197.452H933.811V198.452ZM933.811 200V201H934.811V200H933.811ZM925.711 200L924.921 200.613L925.221 201H925.711V200ZM911.455 181.64L912.245 181.027L910.455 178.722V181.64H911.455ZM911.455 200V201H912.455V200H911.455ZM903.715 200H902.715V201H903.715V200ZM903.715 198.452V197.452H902.715V198.452H903.715ZM908.207 198.452V174.836H906.207V198.452H908.207ZM907.207 175.836H911.455V173.836H907.207V175.836ZM910.665 175.45L925.281 194.242L926.86 193.014L912.244 174.222L910.665 175.45ZM927.071 193.628V174.836H925.071V193.628H927.071ZM926.071 175.836H930.319V173.836H926.071V175.836ZM929.319 174.836V198.452H931.319V174.836H929.319ZM930.319 199.452H933.811V197.452H930.319V199.452ZM932.811 198.452V200H934.811V198.452H932.811ZM933.811 199H925.711V201H933.811V199ZM926.501 199.387L912.245 181.027L910.665 182.253L924.921 200.613L926.501 199.387ZM910.455 181.64V200H912.455V181.64H910.455ZM911.455 199H903.715V201H911.455V199ZM904.715 200V198.452H902.715V200H904.715ZM903.715 199.452H907.207V197.452H903.715V199.452ZM961.961 198.452H962.961V197.452H961.961V198.452ZM961.961 200V201H962.961V200H961.961ZM933.809 200H932.809V201H933.809V200ZM933.809 198.452V197.452H932.809V198.452H933.809ZM937.301 198.452V199.452H938.301V198.452H937.301ZM937.301 174.836V173.836H936.301V174.836H937.301ZM956.345 178.148L955.671 178.887L955.675 178.891L956.345 178.148ZM953.645 198.452L953.214 197.55L953.645 199.452V198.452ZM941.549 178.76V177.76H940.549V178.76H941.549ZM941.549 196.004H940.549V197.004H941.549V196.004ZM953.249 193.844L953.916 194.589L953.916 194.588L953.249 193.844ZM960.961 198.452V200H962.961V198.452H960.961ZM961.961 199H933.809V201H961.961V199ZM934.809 200V198.452H932.809V200H934.809ZM933.809 199.452H937.301V197.452H933.809V199.452ZM938.301 198.452V174.836H936.301V198.452H938.301ZM937.301 175.836H945.941V173.836H937.301V175.836ZM945.941 175.836C950.298 175.836 953.491 176.901 955.671 178.887L957.018 177.409C954.35 174.979 950.607 173.836 945.941 173.836V175.836ZM955.675 178.891C957.843 180.844 958.981 183.632 958.981 187.4H960.981C960.981 183.2 959.694 179.82 957.014 177.405L955.675 178.891ZM958.981 187.4C958.981 189.946 958.478 192.024 957.529 193.68C956.584 195.327 955.162 196.62 953.214 197.55L954.075 199.354C956.351 198.268 958.097 196.711 959.264 194.674C960.427 192.646 960.981 190.206 960.981 187.4H958.981ZM953.645 199.452H961.961V197.452H953.645V199.452ZM956.697 187.4C956.697 184.328 955.81 181.852 953.879 180.167C951.974 178.504 949.22 177.76 945.797 177.76V179.76C948.973 179.76 951.169 180.456 952.564 181.673C953.933 182.868 954.697 184.712 954.697 187.4H956.697ZM945.797 177.76H941.549V179.76H945.797V177.76ZM940.549 178.76V196.004H942.549V178.76H940.549ZM941.549 197.004H946.265V195.004H941.549V197.004ZM946.265 197.004C949.458 197.004 952.061 196.25 953.916 194.589L952.581 193.099C951.22 194.318 949.167 195.004 946.265 195.004V197.004ZM953.916 194.588C955.818 192.883 956.697 190.428 956.697 187.4H954.697C954.697 190.036 953.944 191.877 952.581 193.1L953.916 194.588ZM971.833 198.452H972.833V197.452H971.833V198.452ZM971.833 200V201H972.833V200H971.833ZM961.969 200H960.969V201H961.969V200ZM961.969 198.452V197.452H960.969V198.452H961.969ZM970.833 198.452V200H972.833V198.452H970.833ZM971.833 199H961.969V201H971.833V199ZM962.969 200V198.452H960.969V200H962.969ZM961.969 199.452H971.833V197.452H961.969V199.452ZM1000 198.452H1001V197.452H1000V198.452ZM1000 200V201H1001V200H1000ZM971.848 200H970.848V201H971.848V200ZM971.848 198.452V197.452H970.848V198.452H971.848ZM975.34 198.452V199.452H976.34V198.452H975.34ZM975.34 174.836V173.836H974.34V174.836H975.34ZM994.384 178.148L993.71 178.887L993.714 178.891L994.384 178.148ZM991.684 198.452L991.253 197.55L991.684 199.452V198.452ZM979.588 178.76V177.76H978.588V178.76H979.588ZM979.588 196.004H978.588V197.004H979.588V196.004ZM991.288 193.844L991.955 194.589L991.955 194.588L991.288 193.844ZM999 198.452V200H1001V198.452H999ZM1000 199H971.848V201H1000V199ZM972.848 200V198.452H970.848V200H972.848ZM971.848 199.452H975.34V197.452H971.848V199.452ZM976.34 198.452V174.836H974.34V198.452H976.34ZM975.34 175.836H983.98V173.836H975.34V175.836ZM983.98 175.836C988.337 175.836 991.53 176.901 993.71 178.887L995.057 177.409C992.389 174.979 988.646 173.836 983.98 173.836V175.836ZM993.714 178.891C995.882 180.844 997.02 183.632 997.02 187.4H999.02C999.02 183.2 997.733 179.82 995.053 177.405L993.714 178.891ZM997.02 187.4C997.02 189.946 996.517 192.024 995.568 193.68C994.623 195.327 993.201 196.62 991.253 197.55L992.114 199.354C994.39 198.268 996.136 196.711 997.303 194.674C998.466 192.646 999.02 190.206 999.02 187.4H997.02ZM991.684 199.452H1000V197.452H991.684V199.452ZM994.736 187.4C994.736 184.328 993.849 181.852 991.918 180.167C990.013 178.504 987.259 177.76 983.836 177.76V179.76C987.012 179.76 989.208 180.456 990.603 181.673C991.972 182.868 992.736 184.712 992.736 187.4H994.736ZM983.836 177.76H979.588V179.76H983.836V177.76ZM978.588 178.76V196.004H980.588V178.76H978.588ZM979.588 197.004H984.304V195.004H979.588V197.004ZM984.304 197.004C987.497 197.004 990.1 196.25 991.955 194.589L990.621 193.099C989.259 194.318 987.206 195.004 984.304 195.004V197.004ZM991.955 194.588C993.857 192.883 994.736 190.428 994.736 187.4H992.736C992.736 190.036 991.983 191.877 990.62 193.1L991.955 194.588ZM1003.5 198.452V199.452H1004.5V198.452H1003.5ZM1003.5 174.836V173.836H1002.5V174.836H1003.5ZM1021.18 174.836H1022.18V173.836H1021.18V174.836ZM1021.18 178.832V179.832H1022.18V178.832H1021.18ZM1007.75 178.832V177.832H1006.75V178.832H1007.75ZM1007.75 185.492H1006.75V186.492H1007.75V185.492ZM1019.81 185.492H1020.81V184.492H1019.81V185.492ZM1019.81 189.272V190.272H1020.81V189.272H1019.81ZM1007.75 189.272V188.272H1006.75V189.272H1007.75ZM1007.75 196.004H1006.75V197.004H1007.75V196.004ZM1021.61 196.004H1022.61V195.004H1021.61V196.004ZM1021.61 198.452H1020.61V199.452H1021.61V198.452ZM1025.1 198.452H1026.1V197.452H1025.1V198.452ZM1025.1 200V201H1026.1V200H1025.1ZM1000.01 200H999.008V201H1000.01V200ZM1000.01 198.452V197.452H999.008V198.452H1000.01ZM1004.5 198.452V174.836H1002.5V198.452H1004.5ZM1003.5 175.836H1021.18V173.836H1003.5V175.836ZM1020.18 174.836V178.832H1022.18V174.836H1020.18ZM1021.18 177.832H1007.75V179.832H1021.18V177.832ZM1006.75 178.832V185.492H1008.75V178.832H1006.75ZM1007.75 186.492H1019.81V184.492H1007.75V186.492ZM1018.81 185.492V189.272H1020.81V185.492H1018.81ZM1019.81 188.272H1007.75V190.272H1019.81V188.272ZM1006.75 189.272V196.004H1008.75V189.272H1006.75ZM1007.75 197.004H1021.61V195.004H1007.75V197.004ZM1020.61 196.004V198.452H1022.61V196.004H1020.61ZM1021.61 199.452H1025.1V197.452H1021.61V199.452ZM1024.1 198.452V200H1026.1V198.452H1024.1ZM1025.1 199H1000.01V201H1025.1V199ZM1001.01 200V198.452H999.008V200H1001.01ZM1000.01 199.452H1003.5V197.452H1000.01V199.452ZM1048.76 198.452H1049.76V197.452H1048.76V198.452ZM1048.76 200V201H1049.76V200H1048.76ZM1023.56 200H1022.56V201H1023.56V200ZM1023.56 198.452V197.452H1022.56V198.452H1023.56ZM1033.14 198.452V199.452H1034.62L1034.07 198.08L1033.14 198.452ZM1023.67 174.836V173.836H1022.19L1022.74 175.208L1023.67 174.836ZM1028.42 174.836L1029.35 174.455L1029.09 173.836H1028.42V174.836ZM1036.16 193.628L1035.24 194.009L1036.16 196.254L1037.09 194.009L1036.16 193.628ZM1043.9 174.836V173.836H1043.23L1042.98 174.455L1043.9 174.836ZM1048.65 174.836L1049.58 175.209L1050.13 173.836H1048.65V174.836ZM1039.15 198.452L1038.22 198.079L1037.67 199.452H1039.15V198.452ZM1047.76 198.452V200H1049.76V198.452H1047.76ZM1048.76 199H1023.56V201H1048.76V199ZM1024.56 200V198.452H1022.56V200H1024.56ZM1023.56 199.452H1033.14V197.452H1023.56V199.452ZM1034.07 198.08L1024.6 174.464L1022.74 175.208L1032.21 198.824L1034.07 198.08ZM1023.67 175.836H1028.42V173.836H1023.67V175.836ZM1027.5 175.217L1035.24 194.009L1037.09 193.247L1029.35 174.455L1027.5 175.217ZM1037.09 194.009L1044.83 175.217L1042.98 174.455L1035.24 193.247L1037.09 194.009ZM1043.9 175.836H1048.65V173.836H1043.9V175.836ZM1047.73 174.463L1038.22 198.079L1040.08 198.825L1049.58 175.209L1047.73 174.463ZM1039.15 199.452H1048.76V197.452H1039.15V199.452ZM1052.26 198.452V199.452H1053.26V198.452H1052.26ZM1052.26 174.836V173.836H1051.26V174.836H1052.26ZM1069.94 174.836H1070.94V173.836H1069.94V174.836ZM1069.94 178.832V179.832H1070.94V178.832H1069.94ZM1056.51 178.832V177.832H1055.51V178.832H1056.51ZM1056.51 185.492H1055.51V186.492H1056.51V185.492ZM1068.57 185.492H1069.57V184.492H1068.57V185.492ZM1068.57 189.272V190.272H1069.57V189.272H1068.57ZM1056.51 189.272V188.272H1055.51V189.272H1056.51ZM1056.51 196.004H1055.51V197.004H1056.51V196.004ZM1070.37 196.004H1071.37V195.004H1070.37V196.004ZM1070.37 198.452H1069.37V199.452H1070.37V198.452ZM1073.86 198.452H1074.86V197.452H1073.86V198.452ZM1073.86 200V201H1074.86V200H1073.86ZM1048.77 200H1047.77V201H1048.77V200ZM1048.77 198.452V197.452H1047.77V198.452H1048.77ZM1053.26 198.452V174.836H1051.26V198.452H1053.26ZM1052.26 175.836H1069.94V173.836H1052.26V175.836ZM1068.94 174.836V178.832H1070.94V174.836H1068.94ZM1069.94 177.832H1056.51V179.832H1069.94V177.832ZM1055.51 178.832V185.492H1057.51V178.832H1055.51ZM1056.51 186.492H1068.57V184.492H1056.51V186.492ZM1067.57 185.492V189.272H1069.57V185.492H1067.57ZM1068.57 188.272H1056.51V190.272H1068.57V188.272ZM1055.51 189.272V196.004H1057.51V189.272H1055.51ZM1056.51 197.004H1070.37V195.004H1056.51V197.004ZM1069.37 196.004V198.452H1071.37V196.004H1069.37ZM1070.37 199.452H1073.86V197.452H1070.37V199.452ZM1072.86 198.452V200H1074.86V198.452H1072.86ZM1073.86 199H1048.77V201H1073.86V199ZM1049.77 200V198.452H1047.77V200H1049.77ZM1048.77 199.452H1052.26V197.452H1048.77V199.452ZM1095.04 198.452H1096.04V197.452H1095.04V198.452ZM1095.04 200V201H1096.04V200H1095.04ZM1072.32 200H1071.32V201H1072.32V200ZM1072.32 198.452V197.452H1071.32V198.452H1072.32ZM1075.82 198.452V199.452H1076.82V198.452H1075.82ZM1075.82 174.836V173.836H1074.82V174.836H1075.82ZM1080.06 174.836H1081.06V173.836H1080.06V174.836ZM1080.06 195.968H1079.06V196.968H1080.06V195.968ZM1091.55 195.968H1092.55V194.968H1091.55V195.968ZM1091.55 198.452H1090.55V199.452H1091.55V198.452ZM1094.04 198.452V200H1096.04V198.452H1094.04ZM1095.04 199H1072.32V201H1095.04V199ZM1073.32 200V198.452H1071.32V200H1073.32ZM1072.32 199.452H1075.82V197.452H1072.32V199.452ZM1076.82 198.452V174.836H1074.82V198.452H1076.82ZM1075.82 175.836H1080.06V173.836H1075.82V175.836ZM1079.06 174.836V195.968H1081.06V174.836H1079.06ZM1080.06 196.968H1091.55V194.968H1080.06V196.968ZM1090.55 195.968V198.452H1092.55V195.968H1090.55ZM1091.55 199.452H1095.04V197.452H1091.55V199.452ZM1122.95 198.452H1123.95V197.452H1122.95V198.452ZM1122.95 200V201H1123.95V200H1122.95ZM1092.71 200H1091.71V201H1092.71V200ZM1092.71 198.452V197.452H1091.71V198.452H1092.71ZM1100.96 198.452V199.452H1104.71L1101.46 197.584L1100.96 198.452ZM1096.28 193.808L1095.41 194.305L1095.42 194.313L1096.28 193.808ZM1098.4 177.968L1099.1 178.685L1099.1 178.682L1098.4 177.968ZM1117.27 177.968L1116.57 178.682L1116.57 178.685L1117.27 177.968ZM1119.35 193.808L1118.49 193.307L1118.48 193.315L1119.35 193.808ZM1114.71 198.452L1114.22 197.58L1110.88 199.452H1114.71V198.452ZM1114.13 180.776L1113.41 181.468L1113.42 181.473L1114.13 180.776ZM1101.5 180.776L1100.78 180.079L1100.78 180.084L1101.5 180.776ZM1101.5 193.7L1100.78 194.392L1100.78 194.397L1101.5 193.7ZM1114.13 193.7L1113.42 193.003L1113.41 193.008L1114.13 193.7ZM1121.95 198.452V200H1123.95V198.452H1121.95ZM1122.95 199H1092.71V201H1122.95V199ZM1093.71 200V198.452H1091.71V200H1093.71ZM1092.71 199.452H1100.96V197.452H1092.71V199.452ZM1101.46 197.584C1099.64 196.544 1098.21 195.121 1097.14 193.303L1095.42 194.313C1096.66 196.431 1098.34 198.104 1100.46 199.32L1101.46 197.584ZM1097.15 193.311C1096.11 191.504 1095.59 189.482 1095.59 187.22H1093.59C1093.59 189.806 1094.19 192.176 1095.41 194.305L1097.15 193.311ZM1095.59 187.22C1095.59 183.781 1096.76 180.96 1099.1 178.685L1097.71 177.251C1094.96 179.92 1093.59 183.267 1093.59 187.22H1095.59ZM1099.1 178.682C1101.45 176.379 1104.34 175.224 1107.83 175.224V173.224C1103.84 173.224 1100.44 174.565 1097.7 177.254L1099.1 178.682ZM1107.83 175.224C1111.33 175.224 1114.22 176.379 1116.57 178.682L1117.97 177.254C1115.23 174.565 1111.83 173.224 1107.83 173.224V175.224ZM1116.57 178.685C1118.91 180.96 1120.08 183.781 1120.08 187.22H1122.08C1122.08 183.267 1120.71 179.92 1117.96 177.251L1116.57 178.685ZM1120.08 187.22C1120.08 189.452 1119.55 191.474 1118.49 193.307L1120.22 194.309C1121.46 192.158 1122.08 189.788 1122.08 187.22H1120.08ZM1118.48 193.315C1117.45 195.151 1116.03 196.567 1114.22 197.58L1115.2 199.324C1117.33 198.129 1119.01 196.449 1120.23 194.301L1118.48 193.315ZM1114.71 199.452H1122.95V197.452H1114.71V199.452ZM1114.86 180.084C1112.96 178.108 1110.6 177.112 1107.83 177.112V179.112C1110.06 179.112 1111.9 179.892 1113.41 181.468L1114.86 180.084ZM1107.83 177.112C1105.07 177.112 1102.7 178.108 1100.78 180.079L1102.22 181.473C1103.75 179.892 1105.61 179.112 1107.83 179.112V177.112ZM1100.78 180.084C1098.89 182.053 1097.94 184.464 1097.94 187.256H1099.94C1099.94 184.96 1100.7 183.051 1102.22 181.468L1100.78 180.084ZM1097.94 187.256C1097.94 190.027 1098.89 192.425 1100.78 194.392L1102.22 193.008C1100.7 191.423 1099.94 189.525 1099.94 187.256H1097.94ZM1100.78 194.397C1102.7 196.368 1105.07 197.364 1107.83 197.364V195.364C1105.61 195.364 1103.75 194.584 1102.22 193.003L1100.78 194.397ZM1107.83 197.364C1110.6 197.364 1112.96 196.368 1114.86 194.392L1113.41 193.008C1111.9 194.584 1110.06 195.364 1107.83 195.364V197.364ZM1114.85 194.397C1116.76 192.431 1117.73 190.032 1117.73 187.256H1115.73C1115.73 189.52 1114.96 191.417 1113.42 193.003L1114.85 194.397ZM1117.73 187.256C1117.73 184.459 1116.77 182.047 1114.85 180.079L1113.42 181.473C1114.96 183.057 1115.73 184.965 1115.73 187.256H1117.73ZM1147.57 198.452H1148.57V197.452H1147.57V198.452ZM1147.57 200V201H1148.57V200H1147.57ZM1122.95 200H1121.95V201H1122.95V200ZM1122.95 198.452V197.452H1121.95V198.452H1122.95ZM1126.44 198.452V199.452H1127.44V198.452H1126.44ZM1126.44 174.836V173.836H1125.44V174.836H1126.44ZM1143.43 177.032L1142.79 177.799L1143.43 177.032ZM1143.36 190.496L1142.74 189.71L1142.74 189.714L1143.36 190.496ZM1130.69 192.62V191.62H1129.69V192.62H1130.69ZM1130.69 198.452H1129.69V199.452H1130.69V198.452ZM1140.41 187.436L1139.68 186.748L1139.68 186.749L1140.41 187.436ZM1140.09 179.768L1140.64 178.936L1140.09 179.768ZM1130.69 178.688V177.688H1129.69V178.688H1130.69ZM1130.69 188.768H1129.69V189.768H1130.69V188.768ZM1146.57 198.452V200H1148.57V198.452H1146.57ZM1147.57 199H1122.95V201H1147.57V199ZM1123.95 200V198.452H1121.95V200H1123.95ZM1122.95 199.452H1126.44V197.452H1122.95V199.452ZM1127.44 198.452V174.836H1125.44V198.452H1127.44ZM1126.44 175.836H1135.08V173.836H1126.44V175.836ZM1135.08 175.836C1138.81 175.836 1141.31 176.558 1142.79 177.799L1144.07 176.265C1142.06 174.578 1138.99 173.836 1135.08 173.836V175.836ZM1142.79 177.799C1144.25 179.015 1145.06 180.943 1145.06 183.8H1147.06C1147.06 180.561 1146.12 177.977 1144.07 176.265L1142.79 177.799ZM1145.06 183.8C1145.06 186.651 1144.23 188.542 1142.74 189.71L1143.98 191.282C1146.09 189.618 1147.06 187.045 1147.06 183.8H1145.06ZM1142.74 189.714C1141.22 190.924 1138.75 191.62 1135.15 191.62V193.62C1138.94 193.62 1141.95 192.9 1143.98 191.278L1142.74 189.714ZM1135.15 191.62H1130.69V193.62H1135.15V191.62ZM1129.69 192.62V198.452H1131.69V192.62H1129.69ZM1130.69 199.452H1147.57V197.452H1130.69V199.452ZM1135.62 189.768C1138.02 189.768 1139.99 189.331 1141.14 188.123L1139.68 186.749C1139.14 187.317 1137.92 187.768 1135.62 187.768V189.768ZM1141.14 188.124C1142.23 186.966 1142.71 185.363 1142.71 183.476H1140.71C1140.71 185.045 1140.31 186.082 1139.68 186.748L1141.14 188.124ZM1142.71 183.476C1142.71 181.519 1142.09 179.903 1140.64 178.936L1139.53 180.6C1140.24 181.073 1140.71 181.929 1140.71 183.476H1142.71ZM1140.64 178.936C1139.31 178.05 1137.38 177.688 1135.01 177.688V179.688C1137.25 179.688 1138.7 180.046 1139.53 180.6L1140.64 178.936ZM1135.01 177.688H1130.69V179.688H1135.01V177.688ZM1129.69 178.688V188.768H1131.69V178.688H1129.69ZM1130.69 189.768H1135.62V187.768H1130.69V189.768ZM1157.42 198.452H1158.42V197.452H1157.42V198.452ZM1157.42 200V201H1158.42V200H1157.42ZM1147.56 200H1146.56V201H1147.56V200ZM1147.56 198.452V197.452H1146.56V198.452H1147.56ZM1156.42 198.452V200H1158.42V198.452H1156.42ZM1157.42 199H1147.56V201H1157.42V199ZM1148.56 200V198.452H1146.56V200H1148.56ZM1147.56 199.452H1157.42V197.452H1147.56V199.452ZM1180.12 198.452H1181.12V197.452H1180.12V198.452ZM1180.12 200V201H1181.12V200H1180.12ZM1157.44 200H1156.44V201H1157.44V200ZM1157.44 198.452V197.452H1156.44V198.452H1157.44ZM1162.05 198.452V199.452L1162.51 197.565L1162.05 198.452ZM1158.88 196.22L1158.11 195.581L1157.5 196.31L1158.2 196.954L1158.88 196.22ZM1161.54 193.016L1162.2 192.261L1161.43 191.591L1160.77 192.377L1161.54 193.016ZM1172.7 195.464L1173.29 196.273L1173.29 196.27L1172.7 195.464ZM1172.77 190.856L1172.18 191.659L1172.19 191.67L1172.21 191.68L1172.77 190.856ZM1168.89 189.38L1168.65 190.351L1168.66 190.354L1168.89 189.38ZM1164.67 188.156L1164.3 189.084L1164.31 189.089L1164.32 189.092L1164.67 188.156ZM1162.12 186.68L1162.75 185.902L1162.73 185.892L1162.72 185.883L1162.12 186.68ZM1162.41 176.132L1163 176.935L1163 176.933L1162.41 176.132ZM1173.49 175.016L1173.18 175.965V175.965L1173.49 175.016ZM1177.6 177.248L1178.41 177.826L1178.95 177.071L1178.24 176.48L1177.6 177.248ZM1175.33 180.452L1174.66 181.194L1175.49 181.949L1176.15 181.03L1175.33 180.452ZM1165.5 183.548L1164.93 184.368L1164.94 184.374L1164.95 184.38L1165.5 183.548ZM1170.54 185.276L1170.31 186.248L1170.31 186.248L1170.54 185.276ZM1176.37 187.904L1175.72 188.658L1175.72 188.664L1176.37 187.904ZM1175.62 198.452L1175.01 197.657L1172.66 199.452H1175.62V198.452ZM1179.12 198.452V200H1181.12V198.452H1179.12ZM1180.12 199H1157.44V201H1180.12V199ZM1158.44 200V198.452H1156.44V200H1158.44ZM1157.44 199.452H1162.05V197.452H1157.44V199.452ZM1162.51 197.565C1161.43 197.006 1160.45 196.314 1159.56 195.486L1158.2 196.954C1159.22 197.902 1160.35 198.698 1161.58 199.339L1162.51 197.565ZM1159.65 196.859L1162.31 193.655L1160.77 192.377L1158.11 195.581L1159.65 196.859ZM1160.89 193.771C1163.57 196.099 1166.43 197.328 1169.46 197.328V195.328C1167.02 195.328 1164.6 194.349 1162.2 192.261L1160.89 193.771ZM1169.46 197.328C1170.96 197.328 1172.27 197.014 1173.29 196.273L1172.11 194.655C1171.55 195.066 1170.7 195.328 1169.46 195.328V197.328ZM1173.29 196.27C1174.35 195.493 1174.93 194.422 1174.93 193.124H1172.93C1172.93 193.746 1172.69 194.235 1172.11 194.658L1173.29 196.27ZM1174.93 193.124C1174.93 191.833 1174.4 190.759 1173.34 190.032L1172.21 191.68C1172.69 192.009 1172.93 192.447 1172.93 193.124H1174.93ZM1173.37 190.053C1172.45 189.372 1170.98 188.844 1169.11 188.406L1168.66 190.354C1170.48 190.78 1171.61 191.236 1172.18 191.659L1173.37 190.053ZM1169.13 188.409C1167.29 187.956 1165.93 187.559 1165.02 187.22L1164.32 189.092C1165.34 189.473 1166.79 189.892 1168.65 190.351L1169.13 188.409ZM1165.04 187.228C1164.17 186.877 1163.41 186.434 1162.75 185.902L1161.49 187.458C1162.32 188.126 1163.26 188.667 1164.3 189.084L1165.04 187.228ZM1162.72 185.883C1161.54 184.99 1160.89 183.597 1160.89 181.496H1158.89C1158.89 184.051 1159.71 186.114 1161.51 187.477L1162.72 185.883ZM1160.89 181.496C1160.89 179.443 1161.61 177.971 1163 176.935L1161.81 175.329C1159.84 176.789 1158.89 178.893 1158.89 181.496H1160.89ZM1163 176.933C1164.51 175.812 1166.39 175.224 1168.71 175.224V173.224C1166.03 173.224 1163.71 173.908 1161.81 175.331L1163 176.933ZM1168.71 175.224C1170.2 175.224 1171.69 175.469 1173.18 175.965L1173.81 174.067C1172.13 173.507 1170.43 173.224 1168.71 173.224V175.224ZM1173.18 175.965C1174.66 176.458 1175.91 177.145 1176.96 178.016L1178.24 176.48C1176.98 175.431 1175.5 174.63 1173.81 174.067L1173.18 175.965ZM1176.78 176.67L1174.51 179.874L1176.15 181.03L1178.41 177.826L1176.78 176.67ZM1176 179.71C1175.13 178.921 1173.99 178.311 1172.63 177.849L1171.98 179.743C1173.17 180.145 1174.04 180.639 1174.66 181.194L1176 179.71ZM1172.63 177.849C1171.26 177.385 1169.89 177.148 1168.53 177.148V179.148C1169.66 179.148 1170.81 179.343 1171.98 179.743L1172.63 177.849ZM1168.53 177.148C1167.17 177.148 1165.96 177.428 1164.96 178.06L1166.04 179.748C1166.63 179.372 1167.43 179.148 1168.53 179.148V177.148ZM1164.96 178.06C1163.85 178.769 1163.31 179.875 1163.31 181.208H1165.31C1165.31 180.477 1165.57 180.047 1166.04 179.748L1164.96 178.06ZM1163.31 181.208C1163.31 182.526 1163.86 183.62 1164.93 184.368L1166.07 182.728C1165.56 182.372 1165.31 181.906 1165.31 181.208H1163.31ZM1164.95 184.38C1165.45 184.717 1166.17 185.026 1167.03 185.322C1167.91 185.623 1169 185.932 1170.31 186.248L1170.78 184.304C1169.51 183.996 1168.48 183.705 1167.68 183.43C1166.86 183.15 1166.34 182.907 1166.06 182.716L1164.95 184.38ZM1170.31 186.248C1172.82 186.853 1174.59 187.678 1175.72 188.658L1177.03 187.15C1175.56 185.874 1173.45 184.947 1170.78 184.304L1170.31 186.248ZM1175.72 188.664C1176.78 189.568 1177.35 190.852 1177.35 192.656H1179.35C1179.35 190.38 1178.61 188.496 1177.02 187.144L1175.72 188.664ZM1177.35 192.656C1177.35 194.844 1176.57 196.471 1175.01 197.657L1176.22 199.247C1178.32 197.649 1179.35 195.412 1179.35 192.656H1177.35ZM1175.62 199.452H1180.12V197.452H1175.62V199.452ZM1210.35 198.452H1211.35V197.452H1210.35V198.452ZM1210.35 200V201H1211.35V200H1210.35ZM1180.11 200H1179.11V201H1180.11V200ZM1180.11 198.452V197.452H1179.11V198.452H1180.11ZM1188.36 198.452V199.452H1192.11L1188.85 197.584L1188.36 198.452ZM1183.68 193.808L1182.81 194.305L1182.81 194.313L1183.68 193.808ZM1185.8 177.968L1186.5 178.685L1186.5 178.682L1185.8 177.968ZM1204.67 177.968L1203.96 178.682L1203.97 178.685L1204.67 177.968ZM1206.75 193.808L1205.89 193.307L1205.88 193.315L1206.75 193.808ZM1202.11 198.452L1201.62 197.58L1198.28 199.452H1202.11V198.452ZM1201.53 180.776L1200.81 181.468L1200.82 181.473L1201.53 180.776ZM1188.9 180.776L1188.18 180.079L1188.18 180.084L1188.9 180.776ZM1188.9 193.7L1188.18 194.392L1188.18 194.397L1188.9 193.7ZM1201.53 193.7L1200.82 193.003L1200.81 193.008L1201.53 193.7ZM1209.35 198.452V200H1211.35V198.452H1209.35ZM1210.35 199H1180.11V201H1210.35V199ZM1181.11 200V198.452H1179.11V200H1181.11ZM1180.11 199.452H1188.36V197.452H1180.11V199.452ZM1188.85 197.584C1187.04 196.544 1185.6 195.121 1184.54 193.303L1182.81 194.313C1184.05 196.431 1185.74 198.104 1187.86 199.32L1188.85 197.584ZM1184.54 193.311C1183.51 191.504 1182.99 189.482 1182.99 187.22H1180.99C1180.99 189.806 1181.59 192.176 1182.81 194.305L1184.54 193.311ZM1182.99 187.22C1182.99 183.781 1184.16 180.96 1186.5 178.685L1185.1 177.251C1182.36 179.92 1180.99 183.267 1180.99 187.22H1182.99ZM1186.5 178.682C1188.85 176.379 1191.74 175.224 1195.23 175.224V173.224C1191.24 173.224 1187.84 174.565 1185.1 177.254L1186.5 178.682ZM1195.23 175.224C1198.73 175.224 1201.62 176.379 1203.96 178.682L1205.37 177.254C1202.62 174.565 1199.22 173.224 1195.23 173.224V175.224ZM1203.97 178.685C1206.31 180.96 1207.48 183.781 1207.48 187.22H1209.48C1209.48 183.267 1208.11 179.92 1205.36 177.251L1203.97 178.685ZM1207.48 187.22C1207.48 189.452 1206.95 191.474 1205.89 193.307L1207.62 194.309C1208.86 192.158 1209.48 189.788 1209.48 187.22H1207.48ZM1205.88 193.315C1204.84 195.151 1203.43 196.567 1201.62 197.58L1202.6 199.324C1204.73 198.129 1206.41 196.449 1207.62 194.301L1205.88 193.315ZM1202.11 199.452H1210.35V197.452H1202.11V199.452ZM1202.25 180.084C1200.36 178.108 1198 177.112 1195.23 177.112V179.112C1197.46 179.112 1199.3 179.892 1200.81 181.468L1202.25 180.084ZM1195.23 177.112C1192.47 177.112 1190.1 178.108 1188.18 180.079L1189.61 181.473C1191.15 179.892 1193.01 179.112 1195.23 179.112V177.112ZM1188.18 180.084C1186.29 182.053 1185.34 184.464 1185.34 187.256H1187.34C1187.34 184.96 1188.1 183.051 1189.62 181.468L1188.18 180.084ZM1185.34 187.256C1185.34 190.027 1186.29 192.425 1188.18 194.392L1189.62 193.008C1188.1 191.423 1187.34 189.525 1187.34 187.256H1185.34ZM1188.18 194.397C1190.1 196.368 1192.47 197.364 1195.23 197.364V195.364C1193.01 195.364 1191.15 194.584 1189.61 193.003L1188.18 194.397ZM1195.23 197.364C1198 197.364 1200.36 196.368 1202.25 194.392L1200.81 193.008C1199.3 194.584 1197.46 195.364 1195.23 195.364V197.364ZM1202.25 194.397C1204.16 192.431 1205.13 190.032 1205.13 187.256H1203.13C1203.13 189.52 1202.36 191.417 1200.82 193.003L1202.25 194.397ZM1205.13 187.256C1205.13 184.459 1204.16 182.047 1202.25 180.079L1200.82 181.473C1202.36 183.057 1203.13 184.965 1203.13 187.256H1205.13ZM1232.09 198.452H1233.09V197.452H1232.09V198.452ZM1232.09 200V201H1233.09V200H1232.09ZM1210.35 200H1209.35V201H1210.35V200ZM1210.35 198.452V197.452H1209.35V198.452H1210.35ZM1213.84 198.452V199.452H1214.84V198.452H1213.84ZM1213.84 174.836V173.836H1212.84V174.836H1213.84ZM1230.62 174.836L1231.62 174.845L1231.62 173.836H1230.62V174.836ZM1230.58 178.796V179.796H1231.57L1231.58 178.805L1230.58 178.796ZM1218.09 178.796V177.796H1217.09V178.796H1218.09ZM1218.09 185.708H1217.09V186.708H1218.09V185.708ZM1229.25 185.708H1230.25V184.708H1229.25V185.708ZM1229.25 189.632V190.632H1230.25V189.632H1229.25ZM1218.09 189.632V188.632H1217.09V189.632H1218.09ZM1218.09 198.452H1217.09V199.452H1218.09V198.452ZM1231.09 198.452V200H1233.09V198.452H1231.09ZM1232.09 199H1210.35V201H1232.09V199ZM1211.35 200V198.452H1209.35V200H1211.35ZM1210.35 199.452H1213.84V197.452H1210.35V199.452ZM1214.84 198.452V174.836H1212.84V198.452H1214.84ZM1213.84 175.836H1230.62V173.836H1213.84V175.836ZM1229.62 174.827L1229.58 178.787L1231.58 178.805L1231.62 174.845L1229.62 174.827ZM1230.58 177.796H1218.09V179.796H1230.58V177.796ZM1217.09 178.796V185.708H1219.09V178.796H1217.09ZM1218.09 186.708H1229.25V184.708H1218.09V186.708ZM1228.25 185.708V189.632H1230.25V185.708H1228.25ZM1229.25 188.632H1218.09V190.632H1229.25V188.632ZM1217.09 189.632V198.452H1219.09V189.632H1217.09ZM1218.09 199.452H1232.09V197.452H1218.09V199.452ZM1253.82 198.452H1254.82V197.452H1253.82V198.452ZM1253.82 200V201H1254.82V200H1253.82ZM1232.07 200H1231.07V201H1232.07V200ZM1232.07 198.452V197.452H1231.07V198.452H1232.07ZM1240.82 198.452V199.452H1241.82V198.452H1240.82ZM1240.82 178.724H1241.82V177.724H1240.82V178.724ZM1233.19 178.724H1232.19V179.724H1233.19V178.724ZM1233.19 174.836V173.836H1232.19V174.836H1233.19ZM1252.7 174.836H1253.7V173.836H1252.7V174.836ZM1252.7 178.724V179.724H1253.7V178.724H1252.7ZM1245.07 178.724V177.724H1244.07V178.724H1245.07ZM1245.07 198.452H1244.07V199.452H1245.07V198.452ZM1252.82 198.452V200H1254.82V198.452H1252.82ZM1253.82 199H1232.07V201H1253.82V199ZM1233.07 200V198.452H1231.07V200H1233.07ZM1232.07 199.452H1240.82V197.452H1232.07V199.452ZM1241.82 198.452V178.724H1239.82V198.452H1241.82ZM1240.82 177.724H1233.19V179.724H1240.82V177.724ZM1234.19 178.724V174.836H1232.19V178.724H1234.19ZM1233.19 175.836H1252.7V173.836H1233.19V175.836ZM1251.7 174.836V178.724H1253.7V174.836H1251.7ZM1252.7 177.724H1245.07V179.724H1252.7V177.724ZM1244.07 178.724V198.452H1246.07V178.724H1244.07ZM1245.07 199.452H1253.82V197.452H1245.07V199.452ZM1291.53 198.452H1292.53V197.452H1291.53V198.452ZM1291.53 200V201H1292.53V200H1291.53ZM1278.1 200L1277.14 200.293L1277.36 201H1278.1V200ZM1272.81 182.756L1273.76 182.463L1273.55 181.756H1272.81V182.756ZM1272.52 182.756V181.756H1271.78L1271.56 182.463L1272.52 182.756ZM1267.23 200V201H1267.97L1268.18 200.293L1267.23 200ZM1253.8 200H1252.8V201H1253.8V200ZM1253.8 198.452V197.452H1252.8V198.452H1253.8ZM1262.48 198.452V199.452H1263.89L1263.42 198.122L1262.48 198.452ZM1254.23 174.836V173.836H1252.82L1253.29 175.166L1254.23 174.836ZM1258.8 174.836L1259.75 174.506L1259.51 173.836H1258.8V174.836ZM1265.14 192.944L1264.2 193.274L1265.2 196.135L1266.1 193.24L1265.14 192.944ZM1270.76 174.836V173.836H1270.02L1269.8 174.54L1270.76 174.836ZM1274.57 174.836L1275.53 174.54L1275.31 173.836H1274.57V174.836ZM1280.19 192.944L1279.23 193.24L1280.13 196.135L1281.13 193.274L1280.19 192.944ZM1286.52 174.836V173.836H1285.82L1285.58 174.506L1286.52 174.836ZM1291.1 174.836L1292.04 175.166L1292.51 173.836H1291.1V174.836ZM1282.85 198.452L1281.91 198.122L1281.44 199.452H1282.85V198.452ZM1290.53 198.452V200H1292.53V198.452H1290.53ZM1291.53 199H1278.1V201H1291.53V199ZM1279.06 199.707L1273.76 182.463L1271.85 183.049L1277.14 200.293L1279.06 199.707ZM1272.81 181.756H1272.52V183.756H1272.81V181.756ZM1271.56 182.463L1266.27 199.707L1268.18 200.293L1273.48 183.049L1271.56 182.463ZM1267.23 199H1253.8V201H1267.23V199ZM1254.8 200V198.452H1252.8V200H1254.8ZM1253.8 199.452H1262.48V197.452H1253.8V199.452ZM1263.42 198.122L1255.18 174.506L1253.29 175.166L1261.53 198.782L1263.42 198.122ZM1254.23 175.836H1258.8V173.836H1254.23V175.836ZM1257.86 175.166L1264.2 193.274L1266.08 192.614L1259.75 174.506L1257.86 175.166ZM1266.1 193.24L1271.71 175.132L1269.8 174.54L1264.19 192.648L1266.1 193.24ZM1270.76 175.836H1274.57V173.836H1270.76V175.836ZM1273.62 175.132L1279.23 193.24L1281.14 192.648L1275.53 174.54L1273.62 175.132ZM1281.13 193.274L1287.47 175.166L1285.58 174.506L1279.24 192.614L1281.13 193.274ZM1286.52 175.836H1291.1V173.836H1286.52V175.836ZM1290.15 174.506L1281.91 198.122L1283.8 198.782L1292.04 175.166L1290.15 174.506ZM1282.85 199.452H1291.53V197.452H1282.85V199.452ZM1321.73 198.452H1322.73V197.452H1321.73V198.452ZM1321.73 200V201H1322.73V200H1321.73ZM1313.7 200L1312.78 200.403L1313.05 201H1313.7V200ZM1311.18 194.276L1312.09 193.873L1311.83 193.276H1311.18V194.276ZM1298.58 194.276V193.276H1297.93L1297.66 193.873L1298.58 194.276ZM1296.06 200V201H1296.71L1296.97 200.403L1296.06 200ZM1288.03 200H1287.03V201H1288.03V200ZM1288.03 198.452V197.452H1287.03V198.452H1288.03ZM1292.21 198.452V199.452H1292.86L1293.12 198.855L1292.21 198.452ZM1302.61 174.836V173.836H1301.96L1301.7 174.433L1302.61 174.836ZM1307.15 174.836L1308.06 174.433L1307.8 173.836H1307.15V174.836ZM1317.55 198.452L1316.64 198.855L1316.9 199.452H1317.55V198.452ZM1309.45 190.352V191.352H1310.99L1310.37 189.949L1309.45 190.352ZM1304.88 179.984L1305.79 179.581L1304.88 177.506L1303.96 179.581L1304.88 179.984ZM1300.31 190.352L1299.39 189.949L1298.77 191.352H1300.31V190.352ZM1320.73 198.452V200H1322.73V198.452H1320.73ZM1321.73 199H1313.7V201H1321.73V199ZM1314.61 199.597L1312.09 193.873L1310.26 194.679L1312.78 200.403L1314.61 199.597ZM1311.18 193.276H1298.58V195.276H1311.18V193.276ZM1297.66 193.873L1295.14 199.597L1296.97 200.403L1299.49 194.679L1297.66 193.873ZM1296.06 199H1288.03V201H1296.06V199ZM1289.03 200V198.452H1287.03V200H1289.03ZM1288.03 199.452H1292.21V197.452H1288.03V199.452ZM1293.12 198.855L1303.53 175.239L1301.7 174.433L1291.29 198.049L1293.12 198.855ZM1302.61 175.836H1307.15V173.836H1302.61V175.836ZM1306.23 175.239L1316.64 198.855L1318.47 198.049L1308.06 174.433L1306.23 175.239ZM1317.55 199.452H1321.73V197.452H1317.55V199.452ZM1310.37 189.949L1305.79 179.581L1303.96 180.387L1308.54 190.755L1310.37 189.949ZM1303.96 179.581L1299.39 189.949L1301.22 190.755L1305.79 180.387L1303.96 179.581ZM1300.31 191.352H1309.45V189.352H1300.31V191.352ZM1345.35 198.452H1346.35V197.452H1345.35V198.452ZM1345.35 200V201H1346.35V200H1345.35ZM1337.57 200L1336.76 200.579L1337.06 201H1337.57V200ZM1331.56 191.54L1332.38 190.961L1332.08 190.54H1331.56V191.54ZM1325.98 191.54V190.54H1324.98V191.54H1325.98ZM1325.98 200V201H1326.98V200H1325.98ZM1318.24 200H1317.24V201H1318.24V200ZM1318.24 198.452V197.452H1317.24V198.452H1318.24ZM1321.73 198.452V199.452H1322.73V198.452H1321.73ZM1321.73 174.836V173.836H1320.73V174.836H1321.73ZM1336.39 190.856L1336.1 189.898L1334.75 190.299L1335.57 191.441L1336.39 190.856ZM1341.86 198.452L1341.05 199.037L1341.35 199.452H1341.86V198.452ZM1336.17 186.572L1335.52 185.814L1336.17 186.572ZM1336.13 179.624L1335.56 180.442L1335.57 180.447L1335.57 180.453L1336.13 179.624ZM1325.98 178.688V177.688H1324.98V178.688H1325.98ZM1325.98 187.688H1324.98V188.688H1325.98V187.688ZM1344.35 198.452V200H1346.35V198.452H1344.35ZM1345.35 199H1337.57V201H1345.35V199ZM1338.39 199.421L1332.38 190.961L1330.75 192.119L1336.76 200.579L1338.39 199.421ZM1331.56 190.54H1325.98V192.54H1331.56V190.54ZM1324.98 191.54V200H1326.98V191.54H1324.98ZM1325.98 199H1318.24V201H1325.98V199ZM1319.24 200V198.452H1317.24V200H1319.24ZM1318.24 199.452H1321.73V197.452H1318.24V199.452ZM1322.73 198.452V174.836H1320.73V198.452H1322.73ZM1321.73 175.836H1331.09V173.836H1321.73V175.836ZM1331.09 175.836C1334.87 175.836 1337.34 176.484 1338.72 177.568L1339.95 175.992C1338.03 174.484 1335 173.836 1331.09 173.836V175.836ZM1338.72 177.568C1340.06 178.612 1340.82 180.342 1340.82 183.008H1342.82C1342.82 179.962 1341.93 177.54 1339.95 175.992L1338.72 177.568ZM1340.82 183.008C1340.82 184.942 1340.4 186.418 1339.64 187.515C1338.89 188.602 1337.74 189.41 1336.1 189.898L1336.67 191.814C1338.66 191.222 1340.23 190.182 1341.29 188.653C1342.34 187.134 1342.82 185.226 1342.82 183.008H1340.82ZM1335.57 191.441L1341.05 199.037L1342.67 197.867L1337.2 190.271L1335.57 191.441ZM1341.86 199.452H1345.35V197.452H1341.86V199.452ZM1331.27 188.688C1332.52 188.688 1333.61 188.592 1334.52 188.384C1335.43 188.177 1336.22 187.846 1336.82 187.33L1335.52 185.814C1335.25 186.042 1334.8 186.269 1334.08 186.434C1333.36 186.598 1332.43 186.688 1331.27 186.688V188.688ZM1336.82 187.33C1337.99 186.325 1338.47 184.802 1338.47 183.008H1336.47C1336.47 184.478 1336.08 185.331 1335.52 185.814L1336.82 187.33ZM1338.47 183.008C1338.47 181.209 1337.98 179.667 1336.69 178.795L1335.57 180.453C1336.06 180.781 1336.47 181.495 1336.47 183.008H1338.47ZM1336.71 178.806C1335.55 177.99 1333.68 177.688 1331.38 177.688V179.688C1333.64 179.688 1334.94 180.01 1335.56 180.442L1336.71 178.806ZM1331.38 177.688H1325.98V179.688H1331.38V177.688ZM1324.98 178.688V187.688H1326.98V178.688H1324.98ZM1325.98 188.688H1331.27V186.688H1325.98V188.688ZM1347.93 198.452V199.452H1348.93V198.452H1347.93ZM1347.93 174.836V173.836H1346.93V174.836H1347.93ZM1365.6 174.836H1366.6V173.836H1365.6V174.836ZM1365.6 178.832V179.832H1366.6V178.832H1365.6ZM1352.17 178.832V177.832H1351.17V178.832H1352.17ZM1352.17 185.492H1351.17V186.492H1352.17V185.492ZM1364.23 185.492H1365.23V184.492H1364.23V185.492ZM1364.23 189.272V190.272H1365.23V189.272H1364.23ZM1352.17 189.272V188.272H1351.17V189.272H1352.17ZM1352.17 196.004H1351.17V197.004H1352.17V196.004ZM1366.03 196.004H1367.03V195.004H1366.03V196.004ZM1366.03 198.452H1365.03V199.452H1366.03V198.452ZM1369.53 198.452H1370.53V197.452H1369.53V198.452ZM1369.53 200V201H1370.53V200H1369.53ZM1344.43 200H1343.43V201H1344.43V200ZM1344.43 198.452V197.452H1343.43V198.452H1344.43ZM1348.93 198.452V174.836H1346.93V198.452H1348.93ZM1347.93 175.836H1365.6V173.836H1347.93V175.836ZM1364.6 174.836V178.832H1366.6V174.836H1364.6ZM1365.6 177.832H1352.17V179.832H1365.6V177.832ZM1351.17 178.832V185.492H1353.17V178.832H1351.17ZM1352.17 186.492H1364.23V184.492H1352.17V186.492ZM1363.23 185.492V189.272H1365.23V185.492H1363.23ZM1364.23 188.272H1352.17V190.272H1364.23V188.272ZM1351.17 189.272V196.004H1353.17V189.272H1351.17ZM1352.17 197.004H1366.03V195.004H1352.17V197.004ZM1365.03 196.004V198.452H1367.03V196.004H1365.03ZM1366.03 199.452H1369.53V197.452H1366.03V199.452ZM1368.53 198.452V200H1370.53V198.452H1368.53ZM1369.53 199H1344.43V201H1369.53V199ZM1345.43 200V198.452H1343.43V200H1345.43ZM1344.43 199.452H1347.93V197.452H1344.43V199.452ZM1378.03 198.452H1379.03V197.452H1378.03V198.452ZM1378.03 200V201H1379.03V200H1378.03ZM1367.99 200H1366.99V201H1367.99V200ZM1367.99 198.452V197.452H1366.99V198.452H1367.99ZM1371.12 198.452V199.452H1373.71L1371.79 197.712L1371.12 198.452ZM1374.9 194.636L1374.19 195.343L1374.2 195.351L1374.21 195.359L1374.9 194.636ZM1374.86 198.452L1374.19 197.714L1372.29 199.452H1374.86V198.452ZM1377.03 198.452V200H1379.03V198.452H1377.03ZM1378.03 199H1367.99V201H1378.03V199ZM1368.99 200V198.452H1366.99V200H1368.99ZM1367.99 199.452H1371.12V197.452H1367.99V199.452ZM1371.79 197.712C1371.49 197.437 1371.33 197.09 1371.33 196.58H1369.33C1369.33 197.606 1369.69 198.507 1370.45 199.192L1371.79 197.712ZM1371.33 196.58C1371.33 196.021 1371.5 195.638 1371.79 195.343L1370.38 193.929C1369.66 194.642 1369.33 195.555 1369.33 196.58H1371.33ZM1371.79 195.343C1372.13 195.002 1372.51 194.844 1372.99 194.844V192.844C1371.98 192.844 1371.09 193.214 1370.38 193.929L1371.79 195.343ZM1372.99 194.844C1373.47 194.844 1373.85 195.002 1374.19 195.343L1375.61 193.929C1374.89 193.214 1374 192.844 1372.99 192.844V194.844ZM1374.21 195.359C1374.53 195.664 1374.69 196.033 1374.69 196.544H1376.69C1376.69 195.519 1376.33 194.616 1375.59 193.913L1374.21 195.359ZM1374.69 196.544C1374.69 197.04 1374.53 197.405 1374.19 197.714L1375.54 199.19C1376.3 198.491 1376.69 197.584 1376.69 196.544H1374.69ZM1374.86 199.452H1378.03V197.452H1374.86V199.452ZM1387.91 198.452H1388.91V197.452H1387.91V198.452ZM1387.91 200V201H1388.91V200H1387.91ZM1378.04 200H1377.04V201H1378.04V200ZM1378.04 198.452V197.452H1377.04V198.452H1378.04ZM1386.91 198.452V200H1388.91V198.452H1386.91ZM1387.91 199H1378.04V201H1387.91V199ZM1379.04 200V198.452H1377.04V200H1379.04ZM1378.04 199.452H1387.91V197.452H1378.04V199.452Z" fill="#A16E83"/>
<rect width="1440" height="69" fill="black"/>
<path d="M58.5586 34.2539H55.7578V40.5H52.2422V23.4375H58.582C60.5977 23.4375 62.1523 23.8867 63.2461 24.7852C64.3398 25.6836 64.8867 26.9531 64.8867 28.5938C64.8867 29.7578 64.6328 30.7305 64.125 31.5117C63.625 32.2852 62.8633 32.9023 61.8398 33.3633L65.5312 40.3359V40.5H61.7578L58.5586 34.2539ZM55.7578 31.4062H58.5938C59.4766 31.4062 60.1602 31.1836 60.6445 30.7383C61.1289 30.2852 61.3711 29.6641 61.3711 28.875C61.3711 28.0703 61.1406 27.4375 60.6797 26.9766C60.2266 26.5156 59.5273 26.2852 58.582 26.2852H55.7578V31.4062ZM66.8203 34.043C66.8203 32.7852 67.0625 31.6641 67.5469 30.6797C68.0312 29.6953 68.7266 28.9336 69.6328 28.3945C70.5469 27.8555 71.6055 27.5859 72.8086 27.5859C74.5195 27.5859 75.9141 28.1094 76.9922 29.1562C78.0781 30.2031 78.6836 31.625 78.8086 33.4219L78.832 34.2891C78.832 36.2344 78.2891 37.7969 77.2031 38.9766C76.1172 40.1484 74.6602 40.7344 72.832 40.7344C71.0039 40.7344 69.543 40.1484 68.4492 38.9766C67.3633 37.8047 66.8203 36.2109 66.8203 34.1953V34.043ZM70.207 34.2891C70.207 35.4922 70.4336 36.4141 70.8867 37.0547C71.3398 37.6875 71.9883 38.0039 72.832 38.0039C73.6523 38.0039 74.293 37.6914 74.7539 37.0664C75.2148 36.4336 75.4453 35.4258 75.4453 34.043C75.4453 32.8633 75.2148 31.9492 74.7539 31.3008C74.293 30.6523 73.6445 30.3281 72.8086 30.3281C71.9805 30.3281 71.3398 30.6523 70.8867 31.3008C70.4336 31.9414 70.207 32.9375 70.207 34.2891ZM84.4922 40.5H81.0938V27.8203H84.4922V40.5ZM80.8945 24.5391C80.8945 24.0312 81.0625 23.6133 81.3984 23.2852C81.7422 22.957 82.207 22.793 82.793 22.793C83.3711 22.793 83.832 22.957 84.1758 23.2852C84.5195 23.6133 84.6914 24.0312 84.6914 24.5391C84.6914 25.0547 84.5156 25.4766 84.1641 25.8047C83.8203 26.1328 83.3633 26.2969 82.793 26.2969C82.2227 26.2969 81.7617 26.1328 81.4102 25.8047C81.0664 25.4766 80.8945 25.0547 80.8945 24.5391ZM92.5664 38.0039C93.1914 38.0039 93.6992 37.832 94.0898 37.4883C94.4805 37.1445 94.6836 36.6875 94.6992 36.1172H97.875C97.8672 36.9766 97.6328 37.7656 97.1719 38.4844C96.7109 39.1953 96.0781 39.75 95.2734 40.1484C94.4766 40.5391 93.5938 40.7344 92.625 40.7344C90.8125 40.7344 89.3828 40.1602 88.3359 39.0117C87.2891 37.8555 86.7656 36.2617 86.7656 34.2305V34.0078C86.7656 32.0547 87.2852 30.4961 88.3242 29.332C89.3633 28.168 90.7891 27.5859 92.6016 27.5859C94.1875 27.5859 95.457 28.0391 96.4102 28.9453C97.3711 29.8438 97.8594 31.043 97.875 32.543H94.6992C94.6836 31.8867 94.4805 31.3555 94.0898 30.9492C93.6992 30.5352 93.1836 30.3281 92.543 30.3281C91.7539 30.3281 91.1562 30.6172 90.75 31.1953C90.3516 31.7656 90.1523 32.6953 90.1523 33.9844V34.3359C90.1523 35.6406 90.3516 36.5781 90.75 37.1484C91.1484 37.7188 91.7539 38.0039 92.5664 38.0039ZM105.645 40.7344C103.785 40.7344 102.27 40.1641 101.098 39.0234C99.9336 37.8828 99.3516 36.3633 99.3516 34.4648V34.1367C99.3516 32.8633 99.5977 31.7266 100.09 30.7266C100.582 29.7188 101.277 28.9453 102.176 28.4062C103.082 27.8594 104.113 27.5859 105.27 27.5859C107.004 27.5859 108.367 28.1328 109.359 29.2266C110.359 30.3203 110.859 31.8711 110.859 33.8789V35.2617H102.785C102.895 36.0898 103.223 36.7539 103.77 37.2539C104.324 37.7539 105.023 38.0039 105.867 38.0039C107.172 38.0039 108.191 37.5312 108.926 36.5859L110.59 38.4492C110.082 39.168 109.395 39.7305 108.527 40.1367C107.66 40.5352 106.699 40.7344 105.645 40.7344ZM105.258 30.3281C104.586 30.3281 104.039 30.5547 103.617 31.0078C103.203 31.4609 102.938 32.1094 102.82 32.9531H107.531V32.6836C107.516 31.9336 107.312 31.3555 106.922 30.9492C106.531 30.5352 105.977 30.3281 105.258 30.3281ZM122.508 37.6758H129.973V40.5H118.992V23.4375H122.508V37.6758ZM135.352 40.5H131.953V27.8203H135.352V40.5ZM131.754 24.5391C131.754 24.0312 131.922 23.6133 132.258 23.2852C132.602 22.957 133.066 22.793 133.652 22.793C134.23 22.793 134.691 22.957 135.035 23.2852C135.379 23.6133 135.551 24.0312 135.551 24.5391C135.551 25.0547 135.375 25.4766 135.023 25.8047C134.68 26.1328 134.223 26.2969 133.652 26.2969C133.082 26.2969 132.621 26.1328 132.27 25.8047C131.926 25.4766 131.754 25.0547 131.754 24.5391ZM145.746 39.2109C144.91 40.2266 143.754 40.7344 142.277 40.7344C140.918 40.7344 139.879 40.3438 139.16 39.5625C138.449 38.7812 138.086 37.6367 138.07 36.1289V27.8203H141.457V36.0117C141.457 37.332 142.059 37.9922 143.262 37.9922C144.41 37.9922 145.199 37.5938 145.629 36.7969V27.8203H149.027V40.5H145.84L145.746 39.2109Z" fill="#797979"/>
<path d="M669.088 34.542C669.088 36.4463 668.763 37.8613 668.112 38.7871C667.462 39.7129 666.445 40.1758 665.062 40.1758C663.697 40.1758 662.687 39.7246 662.03 38.8223C661.374 37.9141 661.034 36.5605 661.011 34.7617V32.5908C661.011 30.71 661.336 29.3125 661.986 28.3984C662.637 27.4844 663.656 27.0273 665.045 27.0273C666.422 27.0273 667.436 27.4697 668.086 28.3545C668.736 29.2334 669.07 30.5928 669.088 32.4326V34.542ZM667.462 32.3184C667.462 30.9414 667.269 29.9395 666.882 29.3125C666.495 28.6797 665.883 28.3633 665.045 28.3633C664.213 28.3633 663.606 28.6768 663.226 29.3037C662.845 29.9307 662.648 30.8945 662.637 32.1953V34.7969C662.637 36.1797 662.836 37.2021 663.234 37.8643C663.639 38.5205 664.248 38.8486 665.062 38.8486C665.865 38.8486 666.46 38.5381 666.847 37.917C667.239 37.2959 667.444 36.3174 667.462 34.9814V32.3184ZM676.515 40H674.88V29.1631L671.602 30.3672V28.8906L676.26 27.1416H676.515V40ZM681.48 39.1475C681.48 38.8662 681.562 38.6318 681.727 38.4443C681.896 38.2568 682.148 38.1631 682.482 38.1631C682.816 38.1631 683.068 38.2568 683.238 38.4443C683.414 38.6318 683.502 38.8662 683.502 39.1475C683.502 39.417 683.414 39.6426 683.238 39.8242C683.068 40.0059 682.816 40.0967 682.482 40.0967C682.148 40.0967 681.896 40.0059 681.727 39.8242C681.562 39.6426 681.48 39.417 681.48 39.1475ZM706.907 36.6602H701.546L700.342 40H698.602L703.488 27.2031H704.965L709.86 40H708.129L706.907 36.6602ZM702.056 35.2715H706.406L704.227 29.2861L702.056 35.2715ZM719.379 35.3506C719.379 36.8037 719.045 37.9727 718.377 38.8574C717.709 39.7363 716.812 40.1758 715.688 40.1758C714.486 40.1758 713.558 39.751 712.901 38.9014L712.822 40H711.328V26.5H712.954V31.5361C713.61 30.7217 714.516 30.3145 715.67 30.3145C716.824 30.3145 717.729 30.751 718.386 31.624C719.048 32.4971 719.379 33.6924 719.379 35.21V35.3506ZM717.753 35.166C717.753 34.0586 717.539 33.2031 717.111 32.5996C716.684 31.9961 716.068 31.6943 715.266 31.6943C714.193 31.6943 713.423 32.1924 712.954 33.1885V37.3018C713.452 38.2979 714.229 38.7959 715.283 38.7959C716.062 38.7959 716.669 38.4941 717.103 37.8906C717.536 37.2871 717.753 36.3789 717.753 35.166ZM721.005 35.1572C721.005 34.2256 721.187 33.3877 721.55 32.6436C721.919 31.8994 722.429 31.3252 723.079 30.9209C723.735 30.5166 724.482 30.3145 725.32 30.3145C726.615 30.3145 727.661 30.7627 728.458 31.6592C729.261 32.5557 729.662 33.748 729.662 35.2363V35.3506C729.662 36.2764 729.483 37.1084 729.126 37.8467C728.774 38.5791 728.268 39.1504 727.605 39.5605C726.949 39.9707 726.193 40.1758 725.338 40.1758C724.049 40.1758 723.003 39.7275 722.2 38.8311C721.403 37.9346 721.005 36.748 721.005 35.2715V35.1572ZM722.64 35.3506C722.64 36.4053 722.883 37.252 723.369 37.8906C723.861 38.5293 724.518 38.8486 725.338 38.8486C726.164 38.8486 726.82 38.5264 727.307 37.8818C727.793 37.2314 728.036 36.3232 728.036 35.1572C728.036 34.1143 727.787 33.2705 727.289 32.626C726.797 31.9756 726.141 31.6504 725.32 31.6504C724.518 31.6504 723.87 31.9697 723.378 32.6084C722.886 33.2471 722.64 34.1611 722.64 35.3506ZM737.572 39.0596C736.939 39.8037 736.011 40.1758 734.786 40.1758C733.772 40.1758 732.999 39.8828 732.466 39.2969C731.938 38.7051 731.672 37.832 731.666 36.6777V30.4902H733.292V36.6338C733.292 38.0752 733.878 38.7959 735.05 38.7959C736.292 38.7959 737.118 38.333 737.528 37.4072V30.4902H739.154V40H737.607L737.572 39.0596ZM743.839 28.1875V30.4902H745.614V31.7471H743.839V37.6445C743.839 38.0254 743.918 38.3125 744.076 38.5059C744.234 38.6934 744.504 38.7871 744.885 38.7871C745.072 38.7871 745.33 38.752 745.658 38.6816V40C745.23 40.1172 744.814 40.1758 744.41 40.1758C743.684 40.1758 743.136 39.9561 742.767 39.5166C742.397 39.0771 742.213 38.4531 742.213 37.6445V31.7471H740.481V30.4902H742.213V28.1875H743.839Z" fill="#7C7878"/>
<path d="M804.088 34.542C804.088 36.4463 803.763 37.8613 803.112 38.7871C802.462 39.7129 801.445 40.1758 800.062 40.1758C798.697 40.1758 797.687 39.7246 797.03 38.8223C796.374 37.9141 796.034 36.5605 796.011 34.7617V32.5908C796.011 30.71 796.336 29.3125 796.986 28.3984C797.637 27.4844 798.656 27.0273 800.045 27.0273C801.422 27.0273 802.436 27.4697 803.086 28.3545C803.736 29.2334 804.07 30.5928 804.088 32.4326V34.542ZM802.462 32.3184C802.462 30.9414 802.269 29.9395 801.882 29.3125C801.495 28.6797 800.883 28.3633 800.045 28.3633C799.213 28.3633 798.606 28.6768 798.226 29.3037C797.845 29.9307 797.648 30.8945 797.637 32.1953V34.7969C797.637 36.1797 797.836 37.2021 798.234 37.8643C798.639 38.5205 799.248 38.8486 800.062 38.8486C800.865 38.8486 801.46 38.5381 801.847 37.917C802.239 37.2959 802.444 36.3174 802.462 34.9814V32.3184ZM814.556 40H806.171V38.8311L810.601 33.9092C811.257 33.165 811.708 32.5615 811.954 32.0986C812.206 31.6299 812.332 31.1465 812.332 30.6484C812.332 29.9805 812.13 29.4326 811.726 29.0049C811.321 28.5771 810.782 28.3633 810.108 28.3633C809.3 28.3633 808.67 28.5947 808.219 29.0576C807.773 29.5146 807.551 30.1533 807.551 30.9736H805.925C805.925 29.7959 806.303 28.8438 807.059 28.1172C807.82 27.3906 808.837 27.0273 810.108 27.0273C811.298 27.0273 812.238 27.3408 812.93 27.9678C813.621 28.5889 813.967 29.418 813.967 30.4551C813.967 31.7148 813.164 33.2148 811.559 34.9551L808.131 38.6729H814.556V40ZM816.48 39.1475C816.48 38.8662 816.562 38.6318 816.727 38.4443C816.896 38.2568 817.148 38.1631 817.482 38.1631C817.816 38.1631 818.068 38.2568 818.238 38.4443C818.414 38.6318 818.502 38.8662 818.502 39.1475C818.502 39.417 818.414 39.6426 818.238 39.8242C818.068 40.0059 817.816 40.0967 817.482 40.0967C817.148 40.0967 816.896 40.0059 816.727 39.8242C816.562 39.6426 816.48 39.417 816.48 39.1475ZM842.074 34.085H836.528V38.6201H842.971V40H834.841V27.2031H842.883V28.5918H836.528V32.7051H842.074V34.085ZM848.007 33.9619L850.116 30.4902H852.015L848.903 35.1924L852.111 40H850.23L848.033 36.4404L845.836 40H843.946L847.154 35.1924L844.043 30.4902H845.924L848.007 33.9619ZM861.779 35.3506C861.779 36.7979 861.448 37.9639 860.786 38.8486C860.124 39.7334 859.228 40.1758 858.097 40.1758C856.942 40.1758 856.034 39.8096 855.372 39.0771V43.6562H853.746V30.4902H855.231L855.311 31.5449C855.973 30.7246 856.893 30.3145 858.07 30.3145C859.213 30.3145 860.115 30.7451 860.777 31.6064C861.445 32.4678 861.779 33.666 861.779 35.2012V35.3506ZM860.153 35.166C860.153 34.0938 859.925 33.2471 859.468 32.626C859.011 32.0049 858.384 31.6943 857.587 31.6943C856.603 31.6943 855.864 32.1309 855.372 33.0039V37.5479C855.858 38.415 856.603 38.8486 857.604 38.8486C858.384 38.8486 859.002 38.541 859.459 37.9258C859.922 37.3047 860.153 36.3848 860.153 35.166ZM867.8 40.1758C866.511 40.1758 865.462 39.7539 864.653 38.9102C863.845 38.0605 863.44 36.9268 863.44 35.5088V35.21C863.44 34.2666 863.619 33.4258 863.977 32.6875C864.34 31.9434 864.844 31.3633 865.488 30.9473C866.139 30.5254 866.842 30.3145 867.598 30.3145C868.834 30.3145 869.795 30.7217 870.48 31.5361C871.166 32.3506 871.509 33.5166 871.509 35.0342V35.7109H865.066C865.09 36.6484 865.362 37.4072 865.884 37.9873C866.411 38.5615 867.079 38.8486 867.888 38.8486C868.462 38.8486 868.948 38.7314 869.347 38.4971C869.745 38.2627 870.094 37.9521 870.393 37.5654L871.386 38.3389C870.589 39.5635 869.394 40.1758 867.8 40.1758ZM867.598 31.6504C866.941 31.6504 866.391 31.8906 865.945 32.3711C865.5 32.8457 865.225 33.5137 865.119 34.375H869.883V34.252C869.836 33.4258 869.613 32.7871 869.215 32.3359C868.816 31.8789 868.277 31.6504 867.598 31.6504ZM877.995 31.9492C877.749 31.9082 877.482 31.8877 877.195 31.8877C876.129 31.8877 875.405 32.3418 875.024 33.25V40H873.398V30.4902H874.98L875.007 31.5889C875.54 30.7393 876.296 30.3145 877.274 30.3145C877.591 30.3145 877.831 30.3555 877.995 30.4375V31.9492ZM881.265 40H879.639V30.4902H881.265V40ZM879.507 27.9678C879.507 27.7041 879.586 27.4814 879.744 27.2998C879.908 27.1182 880.148 27.0273 880.465 27.0273C880.781 27.0273 881.021 27.1182 881.186 27.2998C881.35 27.4814 881.432 27.7041 881.432 27.9678C881.432 28.2314 881.35 28.4512 881.186 28.627C881.021 28.8027 880.781 28.8906 880.465 28.8906C880.148 28.8906 879.908 28.8027 879.744 28.627C879.586 28.4512 879.507 28.2314 879.507 27.9678ZM887.821 40.1758C886.532 40.1758 885.483 39.7539 884.675 38.9102C883.866 38.0605 883.462 36.9268 883.462 35.5088V35.21C883.462 34.2666 883.641 33.4258 883.998 32.6875C884.361 31.9434 884.865 31.3633 885.51 30.9473C886.16 30.5254 886.863 30.3145 887.619 30.3145C888.855 30.3145 889.816 30.7217 890.502 31.5361C891.188 32.3506 891.53 33.5166 891.53 35.0342V35.7109H885.088C885.111 36.6484 885.384 37.4072 885.905 37.9873C886.433 38.5615 887.101 38.8486 887.909 38.8486C888.483 38.8486 888.97 38.7314 889.368 38.4971C889.767 38.2627 890.115 37.9521 890.414 37.5654L891.407 38.3389C890.61 39.5635 889.415 40.1758 887.821 40.1758ZM887.619 31.6504C886.963 31.6504 886.412 31.8906 885.967 32.3711C885.521 32.8457 885.246 33.5137 885.141 34.375H889.904V34.252C889.857 33.4258 889.635 32.7871 889.236 32.3359C888.838 31.8789 888.299 31.6504 887.619 31.6504ZM894.958 30.4902L895.011 31.6855C895.737 30.7715 896.687 30.3145 897.858 30.3145C899.868 30.3145 900.882 31.4482 900.899 33.7158V40H899.273V33.707C899.268 33.0215 899.109 32.5146 898.799 32.1865C898.494 31.8584 898.017 31.6943 897.366 31.6943C896.839 31.6943 896.376 31.835 895.978 32.1162C895.579 32.3975 895.269 32.7666 895.046 33.2236V40H893.42V30.4902H894.958ZM907.166 38.8486C907.746 38.8486 908.253 38.6729 908.687 38.3213C909.12 37.9697 909.36 37.5303 909.407 37.0029H910.945C910.916 37.5479 910.729 38.0664 910.383 38.5586C910.037 39.0508 909.574 39.4434 908.994 39.7363C908.42 40.0293 907.811 40.1758 907.166 40.1758C905.871 40.1758 904.84 39.7451 904.072 38.8838C903.311 38.0166 902.93 36.833 902.93 35.333V35.0605C902.93 34.1348 903.1 33.3115 903.439 32.5908C903.779 31.8701 904.266 31.3105 904.898 30.9121C905.537 30.5137 906.29 30.3145 907.157 30.3145C908.224 30.3145 909.108 30.6338 909.812 31.2725C910.521 31.9111 910.898 32.7402 910.945 33.7598H909.407C909.36 33.1445 909.126 32.6406 908.704 32.248C908.288 31.8496 907.772 31.6504 907.157 31.6504C906.331 31.6504 905.689 31.9492 905.232 32.5469C904.781 33.1387 904.556 33.9971 904.556 35.1221V35.4297C904.556 36.5254 904.781 37.3691 905.232 37.9609C905.684 38.5527 906.328 38.8486 907.166 38.8486ZM916.72 40.1758C915.431 40.1758 914.382 39.7539 913.573 38.9102C912.765 38.0605 912.36 36.9268 912.36 35.5088V35.21C912.36 34.2666 912.539 33.4258 912.896 32.6875C913.26 31.9434 913.764 31.3633 914.408 30.9473C915.059 30.5254 915.762 30.3145 916.518 30.3145C917.754 30.3145 918.715 30.7217 919.4 31.5361C920.086 32.3506 920.429 33.5166 920.429 35.0342V35.7109H913.986C914.01 36.6484 914.282 37.4072 914.804 37.9873C915.331 38.5615 915.999 38.8486 916.808 38.8486C917.382 38.8486 917.868 38.7314 918.267 38.4971C918.665 38.2627 919.014 37.9521 919.312 37.5654L920.306 38.3389C919.509 39.5635 918.313 40.1758 916.72 40.1758ZM916.518 31.6504C915.861 31.6504 915.311 31.8906 914.865 32.3711C914.42 32.8457 914.145 33.5137 914.039 34.375H918.803V34.252C918.756 33.4258 918.533 32.7871 918.135 32.3359C917.736 31.8789 917.197 31.6504 916.518 31.6504Z" fill="#7C7878"/>
<path d="M979.088 34.542C979.088 36.4463 978.763 37.8613 978.112 38.7871C977.462 39.7129 976.445 40.1758 975.062 40.1758C973.697 40.1758 972.687 39.7246 972.03 38.8223C971.374 37.9141 971.034 36.5605 971.011 34.7617V32.5908C971.011 30.71 971.336 29.3125 971.986 28.3984C972.637 27.4844 973.656 27.0273 975.045 27.0273C976.422 27.0273 977.436 27.4697 978.086 28.3545C978.736 29.2334 979.07 30.5928 979.088 32.4326V34.542ZM977.462 32.3184C977.462 30.9414 977.269 29.9395 976.882 29.3125C976.495 28.6797 975.883 28.3633 975.045 28.3633C974.213 28.3633 973.606 28.6768 973.226 29.3037C972.845 29.9307 972.648 30.8945 972.637 32.1953V34.7969C972.637 36.1797 972.836 37.2021 973.234 37.8643C973.639 38.5205 974.248 38.8486 975.062 38.8486C975.865 38.8486 976.46 38.5381 976.847 37.917C977.239 37.2959 977.444 36.3174 977.462 34.9814V32.3184ZM983.535 32.8105H984.757C985.524 32.7988 986.128 32.5967 986.567 32.2041C987.007 31.8115 987.227 31.2812 987.227 30.6133C987.227 29.1133 986.479 28.3633 984.985 28.3633C984.282 28.3633 983.72 28.5654 983.298 28.9697C982.882 29.3682 982.674 29.8984 982.674 30.5605H981.048C981.048 29.5469 981.417 28.7061 982.155 28.0381C982.899 27.3643 983.843 27.0273 984.985 27.0273C986.192 27.0273 987.139 27.3467 987.824 27.9854C988.51 28.624 988.853 29.5117 988.853 30.6484C988.853 31.2051 988.671 31.7441 988.308 32.2656C987.95 32.7871 987.461 33.1768 986.84 33.4346C987.543 33.6572 988.085 34.0264 988.466 34.542C988.853 35.0576 989.046 35.6875 989.046 36.4316C989.046 37.5801 988.671 38.4912 987.921 39.165C987.171 39.8389 986.195 40.1758 984.994 40.1758C983.793 40.1758 982.814 39.8506 982.059 39.2002C981.309 38.5498 980.934 37.6914 980.934 36.625H982.568C982.568 37.2988 982.788 37.8379 983.228 38.2422C983.667 38.6465 984.256 38.8486 984.994 38.8486C985.779 38.8486 986.38 38.6436 986.796 38.2334C987.212 37.8232 987.42 37.2344 987.42 36.4668C987.42 35.7227 987.191 35.1514 986.734 34.7529C986.277 34.3545 985.618 34.1494 984.757 34.1377H983.535V32.8105ZM991.48 39.1475C991.48 38.8662 991.562 38.6318 991.727 38.4443C991.896 38.2568 992.148 38.1631 992.482 38.1631C992.816 38.1631 993.068 38.2568 993.238 38.4443C993.414 38.6318 993.502 38.8662 993.502 39.1475C993.502 39.417 993.414 39.6426 993.238 39.8242C993.068 40.0059 992.816 40.0967 992.482 40.0967C992.148 40.0967 991.896 40.0059 991.727 39.8242C991.562 39.6426 991.48 39.417 991.48 39.1475ZM1011.53 34.9902V40H1009.84V27.2031H1014.56C1015.96 27.2031 1017.06 27.5605 1017.85 28.2754C1018.64 28.9902 1019.04 29.9365 1019.04 31.1143C1019.04 32.3564 1018.65 33.3145 1017.87 33.9883C1017.1 34.6562 1015.99 34.9902 1014.54 34.9902H1011.53ZM1011.53 33.6104H1014.56C1015.46 33.6104 1016.15 33.3994 1016.63 32.9775C1017.12 32.5498 1017.36 31.9346 1017.36 31.1318C1017.36 30.3701 1017.12 29.7607 1016.63 29.3037C1016.15 28.8467 1015.5 28.6094 1014.66 28.5918H1011.53V33.6104ZM1025.54 31.9492C1025.29 31.9082 1025.03 31.8877 1024.74 31.8877C1023.67 31.8877 1022.95 32.3418 1022.57 33.25V40H1020.94V30.4902H1022.52L1022.55 31.5889C1023.08 30.7393 1023.84 30.3145 1024.82 30.3145C1025.13 30.3145 1025.37 30.3555 1025.54 30.4375V31.9492ZM1026.43 35.1572C1026.43 34.2256 1026.62 33.3877 1026.98 32.6436C1027.35 31.8994 1027.86 31.3252 1028.51 30.9209C1029.17 30.5166 1029.91 30.3145 1030.75 30.3145C1032.04 30.3145 1033.09 30.7627 1033.89 31.6592C1034.69 32.5557 1035.09 33.748 1035.09 35.2363V35.3506C1035.09 36.2764 1034.91 37.1084 1034.56 37.8467C1034.2 38.5791 1033.7 39.1504 1033.04 39.5605C1032.38 39.9707 1031.62 40.1758 1030.77 40.1758C1029.48 40.1758 1028.43 39.7275 1027.63 38.8311C1026.83 37.9346 1026.43 36.748 1026.43 35.2715V35.1572ZM1028.07 35.3506C1028.07 36.4053 1028.31 37.252 1028.8 37.8906C1029.29 38.5293 1029.95 38.8486 1030.77 38.8486C1031.59 38.8486 1032.25 38.5264 1032.74 37.8818C1033.22 37.2314 1033.47 36.3232 1033.47 35.1572C1033.47 34.1143 1033.22 33.2705 1032.72 32.626C1032.23 31.9756 1031.57 31.6504 1030.75 31.6504C1029.95 31.6504 1029.3 31.9697 1028.81 32.6084C1028.32 33.2471 1028.07 34.1611 1028.07 35.3506ZM1038.81 30.4902V41.0986C1038.81 42.9268 1037.98 43.8408 1036.32 43.8408C1035.96 43.8408 1035.63 43.7881 1035.33 43.6826V42.3818C1035.52 42.4287 1035.76 42.4521 1036.07 42.4521C1036.43 42.4521 1036.71 42.3525 1036.89 42.1533C1037.09 41.96 1037.18 41.6201 1037.18 41.1338V30.4902H1038.81ZM1037.02 27.9678C1037.02 27.71 1037.1 27.4902 1037.25 27.3086C1037.42 27.1211 1037.66 27.0273 1037.97 27.0273C1038.28 27.0273 1038.52 27.1182 1038.69 27.2998C1038.85 27.4814 1038.93 27.7041 1038.93 27.9678C1038.93 28.2314 1038.85 28.4512 1038.69 28.627C1038.52 28.8027 1038.28 28.8906 1037.97 28.8906C1037.65 28.8906 1037.41 28.8027 1037.25 28.627C1037.1 28.4512 1037.02 28.2314 1037.02 27.9678ZM1045.38 40.1758C1044.09 40.1758 1043.05 39.7539 1042.24 38.9102C1041.43 38.0605 1041.02 36.9268 1041.02 35.5088V35.21C1041.02 34.2666 1041.2 33.4258 1041.56 32.6875C1041.92 31.9434 1042.43 31.3633 1043.07 30.9473C1043.72 30.5254 1044.43 30.3145 1045.18 30.3145C1046.42 30.3145 1047.38 30.7217 1048.06 31.5361C1048.75 32.3506 1049.09 33.5166 1049.09 35.0342V35.7109H1042.65C1042.67 36.6484 1042.95 37.4072 1043.47 37.9873C1044 38.5615 1044.66 38.8486 1045.47 38.8486C1046.05 38.8486 1046.53 38.7314 1046.93 38.4971C1047.33 38.2627 1047.68 37.9521 1047.98 37.5654L1048.97 38.3389C1048.17 39.5635 1046.98 40.1758 1045.38 40.1758ZM1045.18 31.6504C1044.53 31.6504 1043.97 31.8906 1043.53 32.3711C1043.08 32.8457 1042.81 33.5137 1042.7 34.375H1047.47V34.252C1047.42 33.4258 1047.2 32.7871 1046.8 32.3359C1046.4 31.8789 1045.86 31.6504 1045.18 31.6504ZM1054.8 38.8486C1055.38 38.8486 1055.88 38.6729 1056.32 38.3213C1056.75 37.9697 1056.99 37.5303 1057.04 37.0029H1058.58C1058.55 37.5479 1058.36 38.0664 1058.01 38.5586C1057.67 39.0508 1057.21 39.4434 1056.62 39.7363C1056.05 40.0293 1055.44 40.1758 1054.8 40.1758C1053.5 40.1758 1052.47 39.7451 1051.7 38.8838C1050.94 38.0166 1050.56 36.833 1050.56 35.333V35.0605C1050.56 34.1348 1050.73 33.3115 1051.07 32.5908C1051.41 31.8701 1051.9 31.3105 1052.53 30.9121C1053.17 30.5137 1053.92 30.3145 1054.79 30.3145C1055.85 30.3145 1056.74 30.6338 1057.44 31.2725C1058.15 31.9111 1058.53 32.7402 1058.58 33.7598H1057.04C1056.99 33.1445 1056.76 32.6406 1056.33 32.248C1055.92 31.8496 1055.4 31.6504 1054.79 31.6504C1053.96 31.6504 1053.32 31.9492 1052.86 32.5469C1052.41 33.1387 1052.19 33.9971 1052.19 35.1221V35.4297C1052.19 36.5254 1052.41 37.3691 1052.86 37.9609C1053.31 38.5527 1053.96 38.8486 1054.8 38.8486ZM1062.61 28.1875V30.4902H1064.39V31.7471H1062.61V37.6445C1062.61 38.0254 1062.69 38.3125 1062.85 38.5059C1063.01 38.6934 1063.28 38.7871 1063.66 38.7871C1063.84 38.7871 1064.1 38.752 1064.43 38.6816V40C1064 40.1172 1063.59 40.1758 1063.18 40.1758C1062.46 40.1758 1061.91 39.9561 1061.54 39.5166C1061.17 39.0771 1060.98 38.4531 1060.98 37.6445V31.7471H1059.25V30.4902H1060.98V28.1875H1062.61ZM1071.83 37.4775C1071.83 37.0381 1071.66 36.6982 1071.33 36.458C1071 36.2119 1070.42 36.001 1069.6 35.8252C1068.78 35.6494 1068.12 35.4385 1067.64 35.1924C1067.16 34.9463 1066.8 34.6533 1066.57 34.3135C1066.34 33.9736 1066.22 33.5693 1066.22 33.1006C1066.22 32.3213 1066.55 31.6621 1067.21 31.123C1067.87 30.584 1068.71 30.3145 1069.74 30.3145C1070.82 30.3145 1071.69 30.5928 1072.36 31.1494C1073.03 31.7061 1073.37 32.418 1073.37 33.2852H1071.73C1071.73 32.8398 1071.54 32.4561 1071.16 32.1338C1070.79 31.8115 1070.31 31.6504 1069.74 31.6504C1069.15 31.6504 1068.68 31.7793 1068.35 32.0371C1068.02 32.2949 1067.85 32.6318 1067.85 33.0479C1067.85 33.4404 1068 33.7363 1068.31 33.9355C1068.62 34.1348 1069.18 34.3252 1069.99 34.5068C1070.81 34.6885 1071.47 34.9053 1071.97 35.1572C1072.47 35.4092 1072.85 35.7139 1073.09 36.0713C1073.33 36.4229 1073.46 36.8535 1073.46 37.3633C1073.46 38.2129 1073.12 38.8955 1072.44 39.4111C1071.76 39.9209 1070.88 40.1758 1069.79 40.1758C1069.03 40.1758 1068.36 40.041 1067.77 39.7715C1067.18 39.502 1066.72 39.127 1066.39 38.6465C1066.06 38.1602 1065.9 37.6357 1065.9 37.0732H1067.52C1067.55 37.6182 1067.77 38.0518 1068.17 38.374C1068.58 38.6904 1069.12 38.8486 1069.79 38.8486C1070.41 38.8486 1070.9 38.7256 1071.27 38.4795C1071.64 38.2275 1071.83 37.8936 1071.83 37.4775Z" fill="#7C7878"/>
<path d="M1131.09 34.542C1131.09 36.4463 1130.76 37.8613 1130.11 38.7871C1129.46 39.7129 1128.45 40.1758 1127.06 40.1758C1125.7 40.1758 1124.69 39.7246 1124.03 38.8223C1123.37 37.9141 1123.03 36.5605 1123.01 34.7617V32.5908C1123.01 30.71 1123.34 29.3125 1123.99 28.3984C1124.64 27.4844 1125.66 27.0273 1127.04 27.0273C1128.42 27.0273 1129.44 27.4697 1130.09 28.3545C1130.74 29.2334 1131.07 30.5928 1131.09 32.4326V34.542ZM1129.46 32.3184C1129.46 30.9414 1129.27 29.9395 1128.88 29.3125C1128.5 28.6797 1127.88 28.3633 1127.04 28.3633C1126.21 28.3633 1125.61 28.6768 1125.23 29.3037C1124.84 29.9307 1124.65 30.8945 1124.64 32.1953V34.7969C1124.64 36.1797 1124.84 37.2021 1125.23 37.8643C1125.64 38.5205 1126.25 38.8486 1127.06 38.8486C1127.87 38.8486 1128.46 38.5381 1128.85 37.917C1129.24 37.2959 1129.44 36.3174 1129.46 34.9814V32.3184ZM1140.04 35.7021H1141.81V37.0293H1140.04V40H1138.4V37.0293H1132.57V36.0713L1138.3 27.2031H1140.04V35.7021ZM1134.42 35.7021H1138.4V29.4268L1138.21 29.7783L1134.42 35.7021ZM1143.48 39.1475C1143.48 38.8662 1143.56 38.6318 1143.73 38.4443C1143.9 38.2568 1144.15 38.1631 1144.48 38.1631C1144.82 38.1631 1145.07 38.2568 1145.24 38.4443C1145.41 38.6318 1145.5 38.8662 1145.5 39.1475C1145.5 39.417 1145.41 39.6426 1145.24 39.8242C1145.07 40.0059 1144.82 40.0967 1144.48 40.0967C1144.15 40.0967 1143.9 40.0059 1143.73 39.8242C1143.56 39.6426 1143.48 39.417 1143.48 39.1475ZM1171.25 35.9395C1171.1 37.293 1170.59 38.3389 1169.75 39.0771C1168.91 39.8096 1167.8 40.1758 1166.4 40.1758C1164.89 40.1758 1163.68 39.6338 1162.76 38.5498C1161.86 37.4658 1161.4 36.0156 1161.4 34.1992V32.9688C1161.4 31.7793 1161.61 30.7334 1162.03 29.8311C1162.46 28.9287 1163.07 28.2373 1163.84 27.7568C1164.62 27.2705 1165.53 27.0273 1166.55 27.0273C1167.91 27.0273 1169 27.4082 1169.82 28.1699C1170.64 28.9258 1171.12 29.9746 1171.25 31.3164H1169.56C1169.41 30.2969 1169.09 29.5586 1168.6 29.1016C1168.11 28.6445 1167.43 28.416 1166.55 28.416C1165.47 28.416 1164.63 28.8145 1164.01 29.6113C1163.4 30.4082 1163.1 31.542 1163.1 33.0127V34.252C1163.1 35.6406 1163.39 36.7451 1163.97 37.5654C1164.55 38.3857 1165.36 38.7959 1166.4 38.7959C1167.34 38.7959 1168.06 38.585 1168.56 38.1631C1169.06 37.7354 1169.39 36.9941 1169.56 35.9395H1171.25ZM1172.88 35.1572C1172.88 34.2256 1173.06 33.3877 1173.42 32.6436C1173.79 31.8994 1174.3 31.3252 1174.95 30.9209C1175.61 30.5166 1176.36 30.3145 1177.2 30.3145C1178.49 30.3145 1179.54 30.7627 1180.33 31.6592C1181.14 32.5557 1181.54 33.748 1181.54 35.2363V35.3506C1181.54 36.2764 1181.36 37.1084 1181 37.8467C1180.65 38.5791 1180.14 39.1504 1179.48 39.5605C1178.82 39.9707 1178.07 40.1758 1177.21 40.1758C1175.92 40.1758 1174.88 39.7275 1174.08 38.8311C1173.28 37.9346 1172.88 36.748 1172.88 35.2715V35.1572ZM1174.51 35.3506C1174.51 36.4053 1174.76 37.252 1175.24 37.8906C1175.74 38.5293 1176.39 38.8486 1177.21 38.8486C1178.04 38.8486 1178.7 38.5264 1179.18 37.8818C1179.67 37.2314 1179.91 36.3232 1179.91 35.1572C1179.91 34.1143 1179.66 33.2705 1179.16 32.626C1178.67 31.9756 1178.02 31.6504 1177.2 31.6504C1176.39 31.6504 1175.75 31.9697 1175.25 32.6084C1174.76 33.2471 1174.51 34.1611 1174.51 35.3506ZM1185.11 30.4902L1185.17 31.6855C1185.89 30.7715 1186.84 30.3145 1188.01 30.3145C1190.02 30.3145 1191.04 31.4482 1191.06 33.7158V40H1189.43V33.707C1189.42 33.0215 1189.27 32.5146 1188.96 32.1865C1188.65 31.8584 1188.17 31.6943 1187.52 31.6943C1187 31.6943 1186.53 31.835 1186.13 32.1162C1185.74 32.3975 1185.42 32.7666 1185.2 33.2236V40H1183.58V30.4902H1185.11ZM1195.71 28.1875V30.4902H1197.49V31.7471H1195.71V37.6445C1195.71 38.0254 1195.79 38.3125 1195.95 38.5059C1196.11 38.6934 1196.38 38.7871 1196.76 38.7871C1196.95 38.7871 1197.21 38.752 1197.53 38.6816V40C1197.11 40.1172 1196.69 40.1758 1196.29 40.1758C1195.56 40.1758 1195.01 39.9561 1194.64 39.5166C1194.27 39.0771 1194.09 38.4531 1194.09 37.6445V31.7471H1192.36V30.4902H1194.09V28.1875H1195.71ZM1205.27 40C1205.17 39.8125 1205.1 39.4785 1205.04 38.998C1204.28 39.7832 1203.38 40.1758 1202.33 40.1758C1201.39 40.1758 1200.62 39.9121 1200.02 39.3848C1199.42 38.8516 1199.12 38.1777 1199.12 37.3633C1199.12 36.373 1199.5 35.6055 1200.25 35.0605C1201 34.5098 1202.07 34.2344 1203.43 34.2344H1205.01V33.4873C1205.01 32.9189 1204.84 32.4678 1204.5 32.1338C1204.16 31.7939 1203.66 31.624 1203 31.624C1202.42 31.624 1201.93 31.7705 1201.54 32.0635C1201.15 32.3564 1200.95 32.7109 1200.95 33.127H1199.32C1199.32 32.6523 1199.48 32.1953 1199.82 31.7559C1200.16 31.3105 1200.62 30.959 1201.19 30.7012C1201.77 30.4434 1202.41 30.3145 1203.1 30.3145C1204.19 30.3145 1205.05 30.5898 1205.67 31.1406C1206.29 31.6855 1206.62 32.4385 1206.64 33.3994V37.7764C1206.64 38.6494 1206.75 39.3438 1206.97 39.8594V40H1205.27ZM1202.57 38.7607C1203.08 38.7607 1203.56 38.6289 1204.02 38.3652C1204.48 38.1016 1204.81 37.7588 1205.01 37.3369V35.3857H1203.74C1201.75 35.3857 1200.75 35.9688 1200.75 37.1348C1200.75 37.6445 1200.92 38.043 1201.26 38.3301C1201.6 38.6172 1202.04 38.7607 1202.57 38.7607ZM1213 38.8486C1213.58 38.8486 1214.09 38.6729 1214.52 38.3213C1214.96 37.9697 1215.2 37.5303 1215.24 37.0029H1216.78C1216.75 37.5479 1216.56 38.0664 1216.22 38.5586C1215.87 39.0508 1215.41 39.4434 1214.83 39.7363C1214.26 40.0293 1213.65 40.1758 1213 40.1758C1211.71 40.1758 1210.68 39.7451 1209.91 38.8838C1209.15 38.0166 1208.77 36.833 1208.77 35.333V35.0605C1208.77 34.1348 1208.94 33.3115 1209.28 32.5908C1209.62 31.8701 1210.1 31.3105 1210.73 30.9121C1211.37 30.5137 1212.13 30.3145 1212.99 30.3145C1214.06 30.3145 1214.94 30.6338 1215.65 31.2725C1216.36 31.9111 1216.73 32.7402 1216.78 33.7598H1215.24C1215.2 33.1445 1214.96 32.6406 1214.54 32.248C1214.12 31.8496 1213.61 31.6504 1212.99 31.6504C1212.17 31.6504 1211.53 31.9492 1211.07 32.5469C1210.62 33.1387 1210.39 33.9971 1210.39 35.1221V35.4297C1210.39 36.5254 1210.62 37.3691 1211.07 37.9609C1211.52 38.5527 1212.16 38.8486 1213 38.8486ZM1220.82 28.1875V30.4902H1222.59V31.7471H1220.82V37.6445C1220.82 38.0254 1220.89 38.3125 1221.05 38.5059C1221.21 38.6934 1221.48 38.7871 1221.86 38.7871C1222.05 38.7871 1222.31 38.752 1222.63 38.6816V40C1222.21 40.1172 1221.79 40.1758 1221.39 40.1758C1220.66 40.1758 1220.11 39.9561 1219.74 39.5166C1219.37 39.0771 1219.19 38.4531 1219.19 37.6445V31.7471H1217.46V30.4902H1219.19V28.1875H1220.82Z" fill="#7C7878"/>
<rect x="1269" y="10" width="126" height="44" rx="4" stroke="#E5E5E5" stroke-width="2"/>
<path d="M1305.06 32.8232H1302.05V38H1300.35V25.2031H1304.59C1306.03 25.2031 1307.14 25.5312 1307.91 26.1875C1308.69 26.8438 1309.08 27.7988 1309.08 29.0527C1309.08 29.8496 1308.86 30.5439 1308.43 31.1357C1308 31.7275 1307.41 32.1699 1306.64 32.4629L1309.64 37.8945V38H1307.83L1305.06 32.8232ZM1302.05 31.4434H1304.64C1305.48 31.4434 1306.15 31.2266 1306.64 30.793C1307.14 30.3594 1307.38 29.7793 1307.38 29.0527C1307.38 28.2617 1307.15 27.6553 1306.67 27.2334C1306.2 26.8115 1305.52 26.5977 1304.63 26.5918H1302.05V31.4434ZM1315.15 38.1758C1313.86 38.1758 1312.81 37.7539 1312 36.9102C1311.19 36.0605 1310.79 34.9268 1310.79 33.5088V33.21C1310.79 32.2666 1310.96 31.4258 1311.32 30.6875C1311.69 29.9434 1312.19 29.3633 1312.83 28.9473C1313.48 28.5254 1314.19 28.3145 1314.94 28.3145C1316.18 28.3145 1317.14 28.7217 1317.83 29.5361C1318.51 30.3506 1318.85 31.5166 1318.85 33.0342V33.7109H1312.41C1312.44 34.6484 1312.71 35.4072 1313.23 35.9873C1313.76 36.5615 1314.42 36.8486 1315.23 36.8486C1315.81 36.8486 1316.29 36.7314 1316.69 36.4971C1317.09 36.2627 1317.44 35.9521 1317.74 35.5654L1318.73 36.3389C1317.93 37.5635 1316.74 38.1758 1315.15 38.1758ZM1314.94 29.6504C1314.29 29.6504 1313.74 29.8906 1313.29 30.3711C1312.85 30.8457 1312.57 31.5137 1312.46 32.375H1317.23V32.252C1317.18 31.4258 1316.96 30.7871 1316.56 30.3359C1316.16 29.8789 1315.62 29.6504 1314.94 29.6504ZM1326.28 35.4775C1326.28 35.0381 1326.11 34.6982 1325.78 34.458C1325.45 34.2119 1324.87 34.001 1324.05 33.8252C1323.23 33.6494 1322.58 33.4385 1322.09 33.1924C1321.61 32.9463 1321.25 32.6533 1321.02 32.3135C1320.79 31.9736 1320.67 31.5693 1320.67 31.1006C1320.67 30.3213 1321 29.6621 1321.66 29.123C1322.32 28.584 1323.16 28.3145 1324.19 28.3145C1325.27 28.3145 1326.14 28.5928 1326.81 29.1494C1327.48 29.7061 1327.82 30.418 1327.82 31.2852H1326.18C1326.18 30.8398 1325.99 30.4561 1325.61 30.1338C1325.24 29.8115 1324.76 29.6504 1324.19 29.6504C1323.6 29.6504 1323.13 29.7793 1322.8 30.0371C1322.47 30.2949 1322.3 30.6318 1322.3 31.0479C1322.3 31.4404 1322.45 31.7363 1322.77 31.9355C1323.08 32.1348 1323.64 32.3252 1324.44 32.5068C1325.26 32.6885 1325.92 32.9053 1326.42 33.1572C1326.93 33.4092 1327.3 33.7139 1327.54 34.0713C1327.78 34.4229 1327.91 34.8535 1327.91 35.3633C1327.91 36.2129 1327.57 36.8955 1326.89 37.4111C1326.21 37.9209 1325.33 38.1758 1324.24 38.1758C1323.48 38.1758 1322.81 38.041 1322.22 37.7715C1321.63 37.502 1321.17 37.127 1320.84 36.6465C1320.51 36.1602 1320.35 35.6357 1320.35 35.0732H1321.97C1322 35.6182 1322.22 36.0518 1322.62 36.374C1323.03 36.6904 1323.57 36.8486 1324.24 36.8486C1324.86 36.8486 1325.35 36.7256 1325.72 36.4795C1326.09 36.2275 1326.28 35.8936 1326.28 35.4775ZM1335.9 37.0596C1335.26 37.8037 1334.33 38.1758 1333.11 38.1758C1332.1 38.1758 1331.32 37.8828 1330.79 37.2969C1330.26 36.7051 1330 35.832 1329.99 34.6777V28.4902H1331.62V34.6338C1331.62 36.0752 1332.2 36.7959 1333.37 36.7959C1334.62 36.7959 1335.44 36.333 1335.85 35.4072V28.4902H1337.48V38H1335.93L1335.9 37.0596ZM1341.49 28.4902L1341.53 29.5449C1342.23 28.7246 1343.17 28.3145 1344.35 28.3145C1345.68 28.3145 1346.59 28.8242 1347.07 29.8438C1347.38 29.3867 1347.79 29.0176 1348.3 28.7363C1348.81 28.4551 1349.41 28.3145 1350.1 28.3145C1352.19 28.3145 1353.25 29.4189 1353.28 31.6279V38H1351.66V31.7246C1351.66 31.0449 1351.5 30.5381 1351.19 30.2041C1350.88 29.8643 1350.36 29.6943 1349.62 29.6943C1349.02 29.6943 1348.52 29.876 1348.12 30.2393C1347.72 30.5967 1347.49 31.0801 1347.43 31.6895V38H1345.79V31.7686C1345.79 30.3857 1345.12 29.6943 1343.76 29.6943C1342.7 29.6943 1341.97 30.1484 1341.57 31.0566V38H1339.95V28.4902H1341.49ZM1359.69 38.1758C1358.4 38.1758 1357.35 37.7539 1356.54 36.9102C1355.73 36.0605 1355.33 34.9268 1355.33 33.5088V33.21C1355.33 32.2666 1355.51 31.4258 1355.87 30.6875C1356.23 29.9434 1356.73 29.3633 1357.38 28.9473C1358.03 28.5254 1358.73 28.3145 1359.49 28.3145C1360.72 28.3145 1361.68 28.7217 1362.37 29.5361C1363.05 30.3506 1363.4 31.5166 1363.4 33.0342V33.7109H1356.95C1356.98 34.6484 1357.25 35.4072 1357.77 35.9873C1358.3 36.5615 1358.97 36.8486 1359.78 36.8486C1360.35 36.8486 1360.84 36.7314 1361.24 36.4971C1361.63 36.2627 1361.98 35.9521 1362.28 35.5654L1363.27 36.3389C1362.48 37.5635 1361.28 38.1758 1359.69 38.1758ZM1359.49 29.6504C1358.83 29.6504 1358.28 29.8906 1357.83 30.3711C1357.39 30.8457 1357.11 31.5137 1357.01 32.375H1361.77V32.252C1361.72 31.4258 1361.5 30.7871 1361.1 30.3359C1360.7 29.8789 1360.17 29.6504 1359.49 29.6504Z" fill="#E5E5E5"/>
</svg>
